<?xml version="1.0" standalone="no"?>
<!DOCTYPE svg PUBLIC "-//W3C//DTD SVG 20010904//EN"
 "http://www.w3.org/TR/2001/REC-SVG-20010904/DTD/svg10.dtd">
<svg version="1.0" xmlns="http://www.w3.org/2000/svg"
 width="1816.000000pt" height="992.000000pt" viewBox="0 0 1816.000000 992.000000"
 preserveAspectRatio="xMidYMid meet">
<metadata>
Created by potrace 1.16, written by Peter Selinger 2001-2019
</metadata>
<g transform="translate(0.000000,992.000000) scale(0.100000,-0.100000)"
fill="#000000" stroke="none">
<path d="M898 9419 c-20 -11 -24 -39 -6 -39 6 0 19 7 29 16 22 20 59 10 59
-17 0 -12 -10 -23 -25 -29 -32 -12 -32 -28 0 -36 32 -8 43 -43 19 -61 -25 -18
-40 -16 -61 6 -12 13 -23 17 -32 12 -11 -7 -9 -13 8 -30 25 -25 77 -28 109 -5
26 18 30 65 7 84 -11 9 -13 16 -5 24 14 14 13 59 -2 74 -15 15 -76 15 -100 1z"/>
<path d="M1083 9411 c-39 -19 -42 -31 -8 -31 25 0 25 -1 25 -80 0 -64 3 -80
15 -80 12 0 15 18 15 105 0 58 -3 104 -7 104 -5 -1 -23 -9 -40 -18z"/>
<path d="M3826 9408 c-21 -30 1 -45 27 -17 22 23 40 24 58 3 18 -22 -9 -69
-67 -114 -64 -51 -59 -60 37 -60 60 0 80 3 77 13 -3 6 -26 14 -53 17 l-49 5
30 25 c87 74 84 150 -6 150 -29 0 -43 -6 -54 -22z"/>
<path d="M3996 9408 c-9 -37 -7 -88 5 -88 6 0 19 4 29 10 42 23 82 -25 55 -66
-19 -29 -38 -31 -62 -5 -13 14 -23 17 -33 11 -12 -7 -11 -12 4 -29 23 -25 87
-28 110 -6 53 54 8 141 -64 122 -16 -4 -20 0 -20 19 0 22 4 24 50 24 38 0 50
4 50 15 0 12 -13 15 -59 15 -52 0 -59 -2 -65 -22z"/>
<path d="M4306 9408 c-21 -30 1 -45 27 -17 22 23 40 24 58 3 18 -22 -9 -69
-67 -114 -64 -51 -59 -60 37 -60 60 0 80 3 77 13 -3 6 -26 14 -53 17 l-49 5
30 25 c87 74 84 150 -6 150 -29 0 -43 -6 -54 -22z"/>
<path d="M4502 9360 c-29 -39 -50 -74 -47 -80 3 -5 28 -10 56 -10 46 0 49 -2
49 -25 0 -16 6 -25 15 -25 9 0 15 9 15 25 0 16 6 25 15 25 8 0 15 7 15 15 0 8
-7 15 -15 15 -12 0 -15 14 -15 65 0 87 -18 86 -88 -5z m58 -20 c0 -39 -1 -40
-35 -40 l-36 0 32 40 c18 22 34 40 36 40 2 0 3 -18 3 -40z"/>
<path d="M6286 9408 c-21 -30 1 -45 27 -17 22 23 40 24 58 3 18 -22 -9 -69
-67 -114 -64 -51 -59 -60 37 -60 60 0 80 3 77 13 -3 6 -26 14 -53 17 l-49 5
30 25 c87 74 84 150 -6 150 -29 0 -43 -6 -54 -22z"/>
<path d="M6471 9411 c-27 -27 -36 -84 -22 -132 13 -42 35 -59 76 -59 41 0 63
17 76 59 24 81 -11 151 -76 151 -21 0 -43 -8 -54 -19z m77 -18 c22 -20 39 -78
24 -87 -12 -7 -75 81 -67 94 9 14 20 12 43 -7z m2 -135 c0 -16 -23 -19 -44 -4
-24 15 -43 77 -31 97 6 9 75 -76 75 -93z"/>
<path d="M6823 9411 c-39 -19 -42 -31 -8 -31 25 0 25 -1 25 -80 0 -64 3 -80
15 -80 12 0 15 18 15 105 0 58 -3 104 -7 104 -5 -1 -23 -9 -40 -18z"/>
<path d="M6940 9410 c-41 -41 -20 -107 38 -125 22 -6 23 -8 7 -32 -18 -27 -14
-39 8 -30 18 7 66 88 73 124 13 66 -77 112 -126 63z m90 -29 c15 -29 13 -39
-14 -56 -31 -21 -66 -5 -66 28 0 46 59 66 80 28z"/>
<path d="M8813 9411 c-39 -19 -42 -31 -8 -31 25 0 25 -1 25 -80 0 -64 3 -80
15 -80 12 0 15 18 15 105 0 58 -3 104 -7 104 -5 -1 -23 -9 -40 -18z"/>
<path d="M8917 9378 c-7 -59 4 -75 37 -52 26 18 31 18 50 -2 25 -24 20 -63 -9
-76 -21 -10 -29 -8 -48 10 -21 20 -37 21 -37 1 0 -18 34 -39 63 -39 50 0 77
24 77 69 0 50 -27 75 -75 69 -35 -4 -43 4 -27 29 4 6 27 13 51 15 25 2 46 9
49 16 3 9 -14 12 -61 12 l-64 0 -6 -52z"/>
<path d="M9293 9411 c-39 -19 -42 -31 -8 -31 25 0 25 -1 25 -80 0 -64 3 -80
15 -80 12 0 15 18 15 105 0 58 -3 104 -7 104 -5 -1 -23 -9 -40 -18z"/>
<path d="M9431 9365 c-66 -83 -66 -95 -1 -95 47 0 50 -2 50 -25 0 -16 6 -25
15 -25 9 0 15 9 15 25 0 18 5 25 20 25 11 0 20 7 20 15 0 8 -9 15 -20 15 -18
0 -20 7 -20 65 0 84 -13 84 -79 0z m46 -62 c-3 -2 -17 -3 -32 -1 l-27 3 29 36
28 37 3 -35 c2 -19 1 -37 -1 -40z"/>
<path d="M10310 9415 c-7 -8 -21 -15 -31 -15 -30 0 -22 -18 9 -22 27 -3 27 -4
30 -80 2 -60 6 -78 17 -78 12 0 15 20 15 105 0 83 -3 105 -14 105 -7 0 -19 -7
-26 -15z"/>
<path d="M10406 9408 c-21 -30 1 -45 27 -17 22 23 40 24 58 3 18 -22 -9 -69
-67 -114 -64 -51 -59 -60 37 -60 60 0 80 3 77 13 -3 6 -26 14 -53 17 l-49 5
30 25 c87 74 84 150 -6 150 -29 0 -43 -6 -54 -22z"/>
<path d="M10820 9415 c-7 -8 -21 -15 -31 -15 -30 0 -22 -18 9 -22 27 -3 27 -4
30 -80 2 -60 6 -78 17 -78 12 0 15 20 15 105 0 83 -3 105 -14 105 -7 0 -19 -7
-26 -15z"/>
<path d="M10940 9415 c-7 -8 -21 -15 -31 -15 -30 0 -22 -18 9 -22 27 -3 27 -4
30 -80 2 -60 6 -78 17 -78 12 0 15 20 15 105 0 83 -3 105 -14 105 -7 0 -19 -7
-26 -15z"/>
<path d="M12770 9415 c0 -12 13 -15 55 -15 30 0 55 -2 55 -5 0 -3 -18 -41 -40
-85 -22 -44 -40 -82 -40 -85 0 -3 8 -5 18 -5 12 1 30 29 60 93 23 51 42 98 42
105 0 8 -22 12 -75 12 -60 0 -75 -3 -75 -15z"/>
<path d="M13309 9404 c-31 -33 -34 -130 -5 -163 25 -27 79 -28 106 -1 42 42
11 120 -48 120 -15 0 -34 -6 -40 -12 -10 -10 -10 -6 -2 19 14 38 32 46 65 31
30 -13 43 -5 25 17 -20 24 -73 19 -101 -11z m79 -86 c35 -35 -15 -99 -53 -68
-15 13 -21 61 -8 73 11 11 48 8 61 -5z"/>
<path d="M16261 9411 c-27 -27 -36 -84 -22 -132 13 -42 35 -59 76 -59 41 0 63
17 76 59 24 81 -11 151 -76 151 -21 0 -43 -8 -54 -19z m77 -18 c22 -20 39 -78
24 -87 -12 -7 -75 81 -67 94 9 14 20 12 43 -7z m2 -135 c0 -16 -23 -19 -44 -4
-24 15 -43 77 -31 97 6 9 75 -76 75 -93z"/>
<path d="M759 9126 c-2 -2 -3 -162 -1 -355 l3 -351 7904 0 7905 0 0 355 0 355
-7903 0 c-4347 0 -7906 -2 -7908 -4z m481 -57 c0 -38 24 -35 28 4 l3 27 240 0
239 0 0 -30 c0 -16 5 -30 10 -30 6 0 10 14 10 30 l0 30 235 0 235 0 0 -30 c0
-16 5 -30 10 -30 6 0 10 14 10 30 l0 30 230 0 230 0 0 -31 c0 -38 24 -35 28 4
l3 27 240 0 239 0 0 -30 c0 -16 5 -30 10 -30 6 0 10 14 10 30 l0 30 235 0 235
0 0 -30 c0 -16 5 -30 10 -30 6 0 10 14 10 30 l0 30 230 0 230 0 0 -330 0 -330
-230 0 -230 0 0 29 c0 17 -4 33 -10 36 -6 4 -10 -8 -10 -29 l0 -36 -235 0
-235 0 0 36 c0 21 -4 33 -10 29 -5 -3 -10 -19 -10 -36 l0 -29 -239 0 -240 0
-3 33 c-2 17 -7 32 -13 32 -5 0 -11 -15 -13 -32 l-3 -33 -230 0 -229 0 0 29
c0 17 -4 33 -10 36 -6 4 -10 -8 -10 -29 l0 -36 -235 0 -235 0 0 36 c0 21 -4
33 -10 29 -5 -3 -10 -19 -10 -36 l0 -29 -239 0 -240 0 -3 33 c-2 17 -7 32 -13
32 -5 0 -11 -15 -13 -32 l-3 -33 -230 0 -229 0 0 330 0 330 230 0 230 0 0 -31z
m3470 1 c0 -16 5 -30 10 -30 6 0 10 14 10 30 l0 30 235 0 235 0 0 -30 c0 -16
5 -30 10 -30 6 0 10 14 10 30 l0 30 230 0 230 0 0 -30 c0 -16 5 -30 10 -30 6
0 10 14 10 30 l0 30 245 0 245 0 0 -30 c0 -16 5 -30 10 -30 6 0 10 14 10 30
l0 30 235 0 235 0 0 -330 0 -330 -235 0 -235 0 0 36 c0 21 -4 33 -10 29 -5 -3
-10 -19 -10 -36 l0 -29 -242 2 -243 3 -3 33 c-4 39 -22 33 -22 -9 l0 -29 -230
0 -230 0 0 29 c0 17 -4 33 -10 36 -6 4 -10 -8 -10 -29 l0 -36 -235 0 -235 0 0
36 c0 21 -4 33 -10 29 -5 -3 -10 -19 -10 -36 l0 -29 -242 2 -243 3 -3 328 -2
327 245 0 245 0 0 -30z m2450 0 c0 -16 5 -30 10 -30 6 0 10 14 10 30 l0 30
245 0 245 0 0 -30 c0 -16 5 -30 10 -30 6 0 10 14 10 30 l0 30 235 0 235 0 0
-30 c0 -16 5 -30 10 -30 6 0 10 14 10 30 l0 30 239 0 240 0 3 -27 c4 -39 28
-42 28 -4 l0 31 230 0 230 0 0 -330 0 -330 -229 0 -230 0 -3 33 c-2 17 -7 32
-13 32 -5 0 -11 -15 -13 -32 l-3 -33 -240 0 -239 0 0 29 c0 17 -4 33 -10 36
-6 4 -10 -8 -10 -29 l0 -36 -235 0 -235 0 0 36 c0 21 -4 33 -10 29 -5 -3 -10
-19 -10 -36 l0 -29 -242 2 -243 3 -3 33 c-4 39 -22 33 -22 -9 l0 -29 -230 0
-230 0 0 330 0 330 230 0 230 0 0 -30z m2480 0 c0 -16 5 -30 10 -30 6 0 10 14
10 30 l0 30 240 0 240 0 0 -30 c0 -20 5 -30 15 -30 10 0 15 10 15 30 l0 30
230 0 230 0 0 -330 0 -330 -229 0 -230 0 -3 33 c-2 17 -7 32 -13 32 -5 0 -11
-15 -13 -32 l-3 -33 -240 0 -239 0 0 29 c0 17 -4 33 -10 36 -6 4 -10 -8 -10
-29 l0 -36 -235 0 -235 0 0 330 0 330 235 0 235 0 0 -30z m1480 0 c0 -16 5
-30 10 -30 6 0 10 14 10 30 l0 30 240 0 240 0 0 -30 c0 -20 5 -30 15 -30 10 0
15 10 15 30 l0 30 230 0 230 0 0 -30 c0 -16 5 -30 10 -30 6 0 10 14 10 30 l0
30 235 0 235 0 0 -30 c0 -16 5 -30 10 -30 6 0 10 14 10 30 l0 30 240 0 240 0
0 -330 0 -330 -240 0 -240 0 0 29 c0 17 -4 33 -10 36 -6 4 -10 -8 -10 -29 l0
-36 -235 0 -235 0 0 35 c0 19 -4 35 -10 35 -5 0 -10 -16 -10 -35 l0 -35 -229
0 -230 0 -3 33 c-2 17 -7 32 -13 32 -5 0 -11 -15 -13 -32 l-3 -33 -240 0 -239
0 0 29 c0 17 -4 33 -10 36 -6 4 -10 -8 -10 -29 l0 -36 -235 0 -235 0 0 330 0
330 235 0 235 0 0 -30z m2470 0 c0 -16 5 -30 10 -30 6 0 10 14 10 30 l0 30
235 0 235 0 0 -30 c0 -16 5 -30 10 -30 6 0 10 14 10 30 l0 30 240 0 240 0 0
-30 c0 -20 5 -30 15 -30 10 0 15 10 15 30 l0 30 230 0 230 0 0 -30 c0 -16 5
-30 10 -30 6 0 10 14 10 30 l0 30 235 0 235 0 0 -30 c0 -16 5 -30 10 -30 6 0
10 14 10 30 l0 30 240 0 240 0 0 -30 c0 -20 5 -30 15 -30 10 0 15 10 15 30 l0
30 230 0 230 0 0 -330 0 -330 -229 0 -230 0 -3 33 c-2 17 -7 32 -13 32 -5 0
-11 -15 -13 -32 l-3 -33 -240 0 -239 0 0 29 c0 17 -4 33 -10 36 -6 4 -10 -8
-10 -29 l0 -36 -235 0 -235 0 0 35 c0 19 -4 35 -10 35 -5 0 -10 -16 -10 -35
l0 -35 -229 0 -230 0 -3 33 c-2 17 -7 32 -13 32 -5 0 -11 -15 -13 -32 l-3 -33
-240 0 -239 0 0 29 c0 17 -4 33 -10 36 -6 4 -10 -8 -10 -29 l0 -36 -235 0
-235 0 0 35 c0 19 -4 35 -10 35 -5 0 -10 -16 -10 -35 l0 -35 -230 0 -230 0 0
330 0 330 230 0 230 0 0 -30z"/>
<path d="M2095 8840 c-4 -16 -11 -30 -16 -30 -5 0 -9 -7 -9 -15 0 -8 5 -15 10
-15 6 0 10 -28 10 -65 0 -51 3 -65 15 -65 12 0 15 14 15 65 0 50 3 65 14 65
24 0 30 21 7 27 -27 7 -27 33 -1 40 30 8 24 23 -9 23 -25 0 -31 -5 -36 -30z"/>
<path d="M2760 8845 c0 -12 13 -15 55 -15 l55 0 -45 -90 c-40 -79 -43 -90 -26
-90 13 0 30 23 60 86 58 121 57 124 -29 124 -56 0 -70 -3 -70 -15z"/>
<path d="M2683 8833 c-4 -10 -13 -22 -21 -27 -13 -8 -13 -10 1 -21 11 -8 17
-30 19 -71 3 -56 4 -59 31 -62 19 -2 27 1 27 12 0 9 -7 16 -15 16 -11 0 -15
12 -15 50 0 38 4 50 15 50 8 0 15 7 15 15 0 8 -7 15 -15 15 -8 0 -15 9 -15 20
0 25 -18 26 -27 3z"/>
<path d="M2183 8794 c-9 -25 5 -126 19 -135 7 -5 34 -8 61 -7 l47 2 0 78 c0
63 -3 78 -15 78 -12 0 -15 -13 -15 -60 0 -48 -4 -61 -19 -70 -32 -16 -51 12
-51 76 0 52 -14 72 -27 38z"/>
<path d="M2350 8730 c0 -63 3 -80 15 -80 10 0 15 15 17 56 3 60 20 83 52 71
12 -5 16 -20 16 -67 0 -47 3 -60 15 -60 12 0 15 14 15 64 0 85 -27 114 -80 86
-13 -7 -21 -7 -25 0 -16 27 -25 3 -25 -70z"/>
<path d="M2535 8785 c-35 -34 -30 -101 9 -127 19 -13 73 -9 86 7 18 22 5 30
-25 17 -21 -10 -28 -9 -45 8 -22 22 -25 42 -10 71 12 21 49 26 67 8 8 -8 13
-7 18 2 10 16 -21 39 -52 39 -13 0 -35 -11 -48 -25z"/>
<path d="M5526 8845 c-32 -32 -9 -50 25 -19 26 23 59 10 59 -24 0 -19 -15 -41
-55 -78 -30 -29 -55 -57 -55 -63 0 -7 28 -11 75 -11 60 0 75 3 75 15 0 11 -12
15 -52 15 l-52 0 41 35 c77 66 75 137 -4 143 -27 2 -46 -2 -57 -13z"/>
<path d="M5260 8730 c0 -64 3 -80 15 -80 11 0 15 12 15 48 0 49 20 82 48 82 7
0 12 7 12 15 0 17 -14 19 -40 5 -13 -7 -21 -7 -25 0 -16 27 -25 3 -25 -70z"/>
<path d="M5376 8797 c-11 -8 -17 -23 -14 -38 2 -18 13 -27 46 -37 23 -8 42
-20 42 -27 0 -21 -39 -29 -58 -12 -9 8 -23 12 -30 10 -26 -10 19 -43 58 -43
41 0 60 14 60 46 0 27 -15 40 -57 49 -20 4 -33 13 -33 22 0 13 8 14 40 9 43
-7 54 6 21 24 -27 14 -54 13 -75 -3z"/>
<path d="M8033 8841 c-39 -19 -42 -31 -8 -31 25 0 25 -1 25 -80 0 -64 3 -80
15 -80 12 0 15 18 15 105 0 58 -3 104 -7 104 -5 -1 -23 -9 -40 -18z"/>
<path d="M7754 8796 c-10 -26 1 -139 14 -144 7 -2 12 6 12 21 0 53 13 89 36
99 25 12 33 38 11 38 -7 0 -19 -6 -26 -12 -11 -10 -14 -10 -18 0 -6 16 -22 15
-29 -2z"/>
<path d="M7866 8791 c-24 -26 -12 -59 22 -67 50 -12 65 -24 51 -40 -15 -18
-34 -18 -52 0 -9 9 -18 11 -28 5 -12 -8 -11 -12 5 -24 26 -20 80 -19 100 1 31
30 17 58 -39 76 -50 16 -47 34 5 30 43 -3 52 11 21 28 -30 16 -66 12 -85 -9z"/>
<path d="M9485 8840 c-4 -16 -11 -30 -16 -30 -5 0 -9 -7 -9 -15 0 -8 5 -15 10
-15 6 0 10 -28 10 -65 0 -51 3 -65 15 -65 12 0 15 14 15 65 0 50 3 65 14 65
24 0 30 21 7 27 -27 7 -27 33 -1 40 30 8 24 23 -9 23 -25 0 -31 -5 -36 -30z"/>
<path d="M10178 8849 c-20 -11 -24 -39 -6 -39 6 0 19 7 29 16 22 20 59 10 59
-17 0 -12 -10 -23 -25 -29 -32 -12 -32 -28 0 -36 32 -8 43 -43 19 -61 -25 -18
-40 -16 -61 6 -12 13 -23 17 -32 12 -11 -7 -9 -13 8 -30 25 -25 77 -28 109 -5
26 18 30 65 7 84 -11 9 -13 16 -5 24 14 14 13 59 -2 74 -15 15 -76 15 -100 1z"/>
<path d="M10073 8833 c-4 -10 -13 -22 -21 -27 -13 -8 -13 -10 1 -21 11 -8 17
-30 19 -71 3 -56 4 -59 31 -62 19 -2 27 1 27 12 0 9 -7 16 -15 16 -11 0 -15
12 -15 50 0 38 4 50 15 50 8 0 15 7 15 15 0 8 -7 15 -15 15 -8 0 -15 9 -15 20
0 25 -18 26 -27 3z"/>
<path d="M9573 8794 c-9 -25 5 -126 19 -135 7 -5 34 -8 61 -7 l47 2 0 78 c0
63 -3 78 -15 78 -12 0 -15 -13 -15 -60 0 -48 -4 -61 -19 -70 -32 -16 -51 12
-51 76 0 52 -14 72 -27 38z"/>
<path d="M9740 8730 c0 -63 3 -80 15 -80 10 0 15 15 17 56 3 60 20 83 52 71
12 -5 16 -20 16 -67 0 -47 3 -60 15 -60 12 0 15 14 15 64 0 85 -27 114 -80 86
-13 -7 -21 -7 -25 0 -16 27 -25 3 -25 -70z"/>
<path d="M9935 8798 c-29 -16 -35 -28 -35 -74 0 -49 23 -74 66 -74 32 0 74 24
62 35 -4 4 -21 3 -37 -3 -39 -14 -63 7 -59 51 4 37 30 57 55 41 10 -6 24 -9
31 -6 10 3 9 8 -4 23 -19 21 -49 24 -79 7z"/>
<path d="M11970 8826 c0 -34 -1 -34 -29 -23 -72 27 -123 -80 -65 -137 18 -19
65 -21 82 -4 9 9 12 9 12 0 0 -7 7 -12 15 -12 12 0 15 18 15 105 0 87 -3 105
-15 105 -10 0 -15 -10 -15 -34z m-10 -72 c13 -33 -7 -79 -35 -79 -30 0 -52 47
-37 79 16 36 59 36 72 0z"/>
<path d="M11754 8796 c-10 -26 1 -139 14 -144 7 -2 12 6 12 21 0 53 13 89 36
99 25 12 33 38 11 38 -7 0 -19 -6 -26 -12 -11 -10 -14 -10 -18 0 -6 16 -22 15
-29 -2z"/>
<path d="M15130 8826 c0 -34 -1 -34 -29 -23 -72 27 -123 -80 -65 -137 18 -19
65 -21 82 -4 9 9 12 9 12 0 0 -7 7 -12 15 -12 12 0 15 18 15 105 0 87 -3 105
-15 105 -10 0 -15 -10 -15 -34z m-10 -72 c13 -33 -7 -79 -35 -79 -30 0 -52 47
-37 79 16 36 59 36 72 0z"/>
<path d="M14365 8785 c-35 -34 -30 -101 9 -127 23 -16 75 -8 96 14 44 47 8
138 -55 138 -14 0 -37 -11 -50 -25z m85 -24 c16 -31 12 -59 -12 -75 -41 -29
-84 25 -58 73 14 27 56 28 70 2z"/>
<path d="M14520 8705 c0 -87 3 -105 15 -105 10 0 15 10 15 28 0 26 2 28 35 24
51 -6 75 19 75 75 0 65 -41 99 -90 73 -13 -7 -21 -7 -25 0 -18 28 -25 0 -25
-95z m98 63 c25 -25 5 -98 -28 -98 -18 0 -40 32 -40 59 0 30 16 51 40 51 9 0
21 -5 28 -12z"/>
<path d="M14725 8798 c-29 -16 -35 -28 -35 -74 0 -49 23 -74 66 -74 32 0 74
24 62 35 -4 4 -21 3 -37 -3 -39 -14 -63 7 -59 51 4 37 30 57 55 41 10 -6 24
-9 31 -6 10 3 9 8 -4 23 -19 21 -49 24 -79 7z"/>
<path d="M14865 8785 c-35 -34 -30 -101 9 -127 23 -16 75 -8 96 14 44 47 8
138 -55 138 -14 0 -37 -11 -50 -25z m85 -24 c16 -31 12 -59 -12 -75 -41 -29
-84 25 -58 73 14 27 56 28 70 2z"/>
<path d="M15225 8798 c-28 -16 -35 -28 -35 -68 0 -53 23 -80 69 -80 21 0 44 6
50 14 16 19 -3 30 -29 16 -24 -13 -60 2 -60 25 0 11 13 15 55 15 50 0 55 2 55
23 0 28 -9 41 -37 56 -27 14 -42 14 -68 -1z m63 -30 c21 -21 13 -28 -28 -28
-22 0 -40 4 -40 8 0 14 23 32 40 32 9 0 21 -5 28 -12z"/>
<path d="M16670 8725 c0 -87 3 -105 15 -105 11 0 15 12 15 45 0 30 4 45 13 45
7 0 27 -20 45 -45 20 -29 39 -45 53 -45 20 0 19 2 -10 41 l-30 42 24 19 c32
25 33 71 3 92 -14 10 -44 16 -75 16 l-53 0 0 -105z m114 53 c14 -23 1 -35 -46
-43 l-38 -7 0 36 c0 37 1 37 36 34 21 -2 42 -10 48 -20z"/>
<path d="M16950 8815 c0 -10 11 -15 35 -15 l35 0 0 -90 c0 -73 3 -90 15 -90
12 0 15 17 15 90 l0 90 35 0 c24 0 35 5 35 15 0 12 -16 15 -85 15 -69 0 -85
-3 -85 -15z"/>
<path d="M17130 8766 c0 -9 11 -45 25 -82 14 -36 25 -68 25 -70 0 -3 -11 -9
-25 -14 -14 -5 -25 -14 -25 -20 0 -15 46 -12 59 4 14 17 73 188 66 194 -12 13
-33 -11 -45 -52 -7 -25 -15 -46 -19 -46 -3 0 -13 21 -21 47 -15 46 -40 70 -40
39z"/>
<path d="M17277 8773 c-4 -3 -7 -51 -7 -105 0 -80 3 -98 15 -98 10 0 15 10 15
30 0 27 2 30 25 24 77 -19 125 65 74 130 -22 28 -48 33 -80 16 -13 -7 -19 -7
-19 0 0 11 -13 13 -23 3z m105 -49 c15 -32 -7 -79 -37 -79 -28 0 -48 46 -35
79 13 36 56 36 72 0z"/>
<path d="M17465 8755 c-51 -50 -17 -135 55 -135 39 0 73 24 48 33 -7 2 -21 0
-30 -4 -21 -11 -46 -2 -59 22 -9 18 -5 19 51 19 54 0 60 2 60 20 0 29 -44 70
-75 70 -14 0 -37 -11 -50 -25z m84 -18 c15 -19 4 -27 -36 -27 -31 0 -44 16
-26 33 11 12 50 8 62 -6z"/>
<path d="M16850 8695 c0 -11 12 -15 45 -15 33 0 45 4 45 15 0 11 -12 15 -45
15 -33 0 -45 -4 -45 -15z"/>
<path d="M898 7759 c-20 -11 -24 -39 -6 -39 6 0 19 7 29 16 22 20 59 10 59
-17 0 -12 -10 -23 -25 -29 -32 -12 -32 -28 0 -36 32 -8 43 -43 19 -61 -25 -18
-40 -16 -61 6 -12 13 -23 17 -32 12 -11 -7 -9 -13 8 -30 25 -25 77 -28 109 -5
26 18 30 65 7 84 -11 9 -13 16 -5 24 14 14 13 59 -2 74 -15 15 -76 15 -100 1z"/>
<path d="M1083 7751 c-39 -19 -42 -31 -8 -31 25 0 25 -1 25 -80 0 -64 3 -80
15 -80 12 0 15 18 15 105 0 58 -3 104 -7 104 -5 -1 -23 -9 -40 -18z"/>
<path d="M6286 7748 c-21 -30 1 -45 27 -17 22 23 40 24 58 3 18 -22 -9 -69
-67 -114 -64 -51 -59 -60 37 -60 60 0 80 3 77 13 -3 6 -26 14 -53 17 l-49 5
30 25 c87 74 84 150 -6 150 -29 0 -43 -6 -54 -22z"/>
<path d="M6471 7751 c-27 -27 -36 -84 -22 -132 13 -42 35 -59 76 -59 41 0 63
17 76 59 24 81 -11 151 -76 151 -21 0 -43 -8 -54 -19z m77 -18 c22 -20 39 -78
24 -87 -12 -7 -75 81 -67 94 9 14 20 12 43 -7z m2 -135 c0 -16 -23 -19 -44 -4
-24 15 -43 77 -31 97 6 9 75 -76 75 -93z"/>
<path d="M6823 7751 c-39 -19 -42 -31 -8 -31 25 0 25 -1 25 -80 0 -64 3 -80
15 -80 12 0 15 18 15 105 0 58 -3 104 -7 104 -5 -1 -23 -9 -40 -18z"/>
<path d="M6940 7750 c-41 -41 -20 -107 38 -125 22 -6 23 -8 7 -32 -18 -27 -14
-39 8 -30 18 7 66 88 73 124 13 66 -77 112 -126 63z m90 -29 c15 -29 13 -39
-14 -56 -31 -21 -66 -5 -66 28 0 46 59 66 80 28z"/>
<path d="M8813 7751 c-39 -19 -42 -31 -8 -31 25 0 25 -1 25 -80 0 -64 3 -80
15 -80 12 0 15 18 15 105 0 58 -3 104 -7 104 -5 -1 -23 -9 -40 -18z"/>
<path d="M8917 7718 c-7 -59 4 -75 37 -52 26 18 31 18 50 -2 25 -24 20 -63 -9
-76 -21 -10 -29 -8 -48 10 -21 20 -37 21 -37 1 0 -18 34 -39 63 -39 50 0 77
24 77 69 0 50 -27 75 -75 69 -35 -4 -43 4 -27 29 4 6 27 13 51 15 25 2 46 9
49 16 3 9 -14 12 -61 12 l-64 0 -6 -52z"/>
<path d="M9293 7751 c-39 -19 -42 -31 -8 -31 25 0 25 -1 25 -80 0 -64 3 -80
15 -80 12 0 15 18 15 105 0 58 -3 104 -7 104 -5 -1 -23 -9 -40 -18z"/>
<path d="M9431 7705 c-66 -83 -66 -95 -1 -95 47 0 50 -2 50 -25 0 -16 6 -25
15 -25 9 0 15 9 15 25 0 18 5 25 20 25 11 0 20 7 20 15 0 8 -9 15 -20 15 -18
0 -20 7 -20 65 0 84 -13 84 -79 0z m46 -62 c-3 -2 -17 -3 -32 -1 l-27 3 29 36
28 37 3 -35 c2 -19 1 -37 -1 -40z"/>
<path d="M10310 7755 c-7 -8 -21 -15 -31 -15 -30 0 -22 -18 9 -22 27 -3 27 -4
30 -80 2 -60 6 -78 17 -78 12 0 15 20 15 105 0 83 -3 105 -14 105 -7 0 -19 -7
-26 -15z"/>
<path d="M10406 7748 c-21 -30 1 -45 27 -17 22 23 40 24 58 3 18 -22 -9 -69
-67 -114 -64 -51 -59 -60 37 -60 60 0 80 3 77 13 -3 6 -26 14 -53 17 l-49 5
30 25 c87 74 84 150 -6 150 -29 0 -43 -6 -54 -22z"/>
<path d="M10820 7755 c-7 -8 -21 -15 -31 -15 -30 0 -22 -18 9 -22 27 -3 27 -4
30 -80 2 -60 6 -78 17 -78 12 0 15 20 15 105 0 83 -3 105 -14 105 -7 0 -19 -7
-26 -15z"/>
<path d="M10940 7755 c-7 -8 -21 -15 -31 -15 -30 0 -22 -18 9 -22 27 -3 27 -4
30 -80 2 -60 6 -78 17 -78 12 0 15 20 15 105 0 83 -3 105 -14 105 -7 0 -19 -7
-26 -15z"/>
<path d="M12770 7755 c0 -12 13 -15 55 -15 30 0 55 -2 55 -5 0 -3 -18 -41 -40
-85 -22 -44 -40 -82 -40 -85 0 -3 8 -5 18 -5 12 1 30 29 60 93 23 51 42 98 42
105 0 8 -22 12 -75 12 -60 0 -75 -3 -75 -15z"/>
<path d="M13309 7744 c-31 -33 -34 -130 -5 -163 25 -27 79 -28 106 -1 42 42
11 120 -48 120 -15 0 -34 -6 -40 -12 -10 -10 -10 -6 -2 19 14 38 32 46 65 31
30 -13 43 -5 25 17 -20 24 -73 19 -101 -11z m79 -86 c35 -35 -15 -99 -53 -68
-15 13 -21 61 -8 73 11 11 48 8 61 -5z"/>
<path d="M16261 7751 c-27 -27 -36 -84 -22 -132 13 -42 35 -59 76 -59 41 0 63
17 76 59 24 81 -11 151 -76 151 -21 0 -43 -8 -54 -19z m77 -18 c22 -20 39 -78
24 -87 -12 -7 -75 81 -67 94 9 14 20 12 43 -7z m2 -135 c0 -16 -23 -19 -44 -4
-24 15 -43 77 -31 97 6 9 75 -76 75 -93z"/>
<path d="M760 7463 c0 -2 0 -161 0 -353 l-1 -350 7663 0 c4215 0 7772 0 7906
0 l242 0 0 350 0 350 -242 0 c-6187 3 -15568 4 -15568 3z m480 -53 c0 -20 5
-30 15 -30 10 0 15 10 15 30 l0 30 240 0 240 0 0 -30 c0 -16 5 -30 10 -30 6 0
10 14 10 30 l0 30 235 0 235 0 0 -30 c0 -16 5 -30 10 -30 6 0 10 14 10 30 l0
30 230 0 230 0 0 -30 c0 -20 5 -30 15 -30 10 0 15 10 15 30 l0 30 240 0 240 0
0 -30 c0 -16 5 -30 10 -30 6 0 10 14 10 30 l0 30 235 0 235 0 0 -30 c0 -16 5
-30 10 -30 6 0 10 14 10 30 l0 30 230 0 230 0 0 -30 c0 -16 5 -30 10 -30 6 0
10 14 10 30 l0 30 245 0 245 0 0 -30 c0 -16 5 -30 10 -30 6 0 10 14 10 30 l0
30 235 0 235 0 0 -30 c0 -16 5 -30 10 -30 6 0 10 14 10 30 l0 30 230 0 230 0
0 -30 c0 -16 5 -30 10 -30 6 0 10 14 10 30 l0 30 245 0 245 0 0 -30 c0 -16 5
-30 10 -30 6 0 10 14 10 30 l0 30 235 0 235 0 0 -330 0 -330 -235 0 -235 0 0
30 c0 17 -4 30 -10 30 -5 0 -10 -13 -10 -30 l0 -30 -245 0 -245 0 0 36 c0 21
-4 33 -10 29 -5 -3 -10 -19 -10 -36 l0 -29 -230 0 -230 0 0 30 c0 17 -4 30
-10 30 -5 0 -10 -13 -10 -30 l0 -30 -235 0 -235 0 0 30 c0 17 -4 30 -10 30 -5
0 -10 -13 -10 -30 l0 -30 -245 0 -245 0 0 36 c0 21 -4 33 -10 29 -6 -3 -10
-19 -10 -36 l0 -29 -230 0 -230 0 0 30 c0 17 -4 30 -10 30 -5 0 -10 -13 -10
-30 l0 -30 -235 0 -235 0 0 30 c0 17 -4 30 -10 30 -5 0 -10 -13 -10 -30 l0
-30 -239 0 -240 0 -3 33 c-2 17 -7 32 -13 32 -5 0 -11 -15 -13 -32 l-3 -33
-230 0 -229 0 0 30 c0 17 -4 30 -10 30 -5 0 -10 -13 -10 -30 l0 -30 -235 0
-235 0 0 30 c0 17 -4 30 -10 30 -5 0 -10 -13 -10 -30 l0 -30 -239 0 -240 0 -3
33 c-2 17 -7 32 -13 32 -5 0 -11 -15 -13 -32 l-3 -33 -230 0 -229 0 0 330 0
330 230 0 230 0 0 -30z m5920 0 c0 -16 5 -30 10 -30 6 0 10 14 10 30 l0 30
245 0 245 0 0 -30 c0 -16 5 -30 10 -30 6 0 10 14 10 30 l0 30 235 0 235 0 0
-30 c0 -16 5 -30 10 -30 6 0 10 14 10 30 l0 30 240 0 240 0 0 -30 c0 -20 5
-30 15 -30 10 0 15 10 15 30 l0 30 230 0 230 0 0 -330 0 -330 -229 0 -230 0
-3 33 c-2 17 -7 32 -13 32 -5 0 -11 -15 -13 -32 l-3 -33 -240 0 -239 0 0 30
c0 17 -4 30 -10 30 -5 0 -10 -13 -10 -30 l0 -30 -235 0 -235 0 0 30 c0 17 -4
30 -10 30 -5 0 -10 -13 -10 -30 l0 -30 -245 0 -245 0 0 36 c0 21 -4 33 -10 29
-5 -3 -10 -19 -10 -36 l0 -29 -230 0 -230 0 0 330 0 330 230 0 230 0 0 -30z
m2480 0 c0 -16 5 -30 10 -30 6 0 10 14 10 30 l0 30 240 0 240 0 0 -30 c0 -20
5 -30 15 -30 10 0 15 10 15 30 l0 30 230 0 230 0 0 -330 0 -330 -229 0 -230 0
-3 33 c-2 17 -7 32 -13 32 -5 0 -11 -15 -13 -32 l-3 -33 -240 0 -239 0 0 30
c0 17 -4 30 -10 30 -5 0 -10 -13 -10 -30 l0 -30 -235 0 -235 0 0 330 0 330
235 0 235 0 0 -30z m1480 0 c0 -16 5 -30 10 -30 6 0 10 14 10 30 l0 30 240 0
240 0 0 -30 c0 -20 5 -30 15 -30 10 0 15 10 15 30 l0 30 230 0 230 0 0 -30 c0
-16 5 -30 10 -30 6 0 10 14 10 30 l0 30 235 0 235 0 0 -30 c0 -16 5 -30 10
-30 6 0 10 14 10 30 l0 30 240 0 240 0 0 -330 0 -330 -240 0 -240 0 0 30 c0
17 -4 30 -10 30 -5 0 -10 -13 -10 -30 l0 -30 -235 0 -235 0 0 30 c0 17 -4 30
-10 30 -5 0 -10 -13 -10 -30 l0 -30 -229 0 -230 0 -3 33 c-2 17 -7 32 -13 32
-5 0 -11 -15 -13 -32 l-3 -33 -240 0 -239 0 0 30 c0 17 -4 30 -10 30 -5 0 -10
-13 -10 -30 l0 -30 -235 0 -235 0 0 330 0 330 235 0 235 0 0 -30z m2470 0 c0
-16 5 -30 10 -30 6 0 10 14 10 30 l0 30 235 0 235 0 0 -30 c0 -16 5 -30 10
-30 6 0 10 14 10 30 l0 30 240 0 240 0 0 -30 c0 -20 5 -30 15 -30 10 0 15 10
15 30 l0 30 230 0 230 0 0 -30 c0 -16 5 -30 10 -30 6 0 10 14 10 30 l0 30 235
0 235 0 0 -30 c0 -16 5 -30 10 -30 6 0 10 14 10 30 l0 30 240 0 240 0 0 -30
c0 -20 5 -30 15 -30 10 0 15 10 15 30 l0 30 230 0 230 0 0 -330 0 -330 -229 0
-230 0 -3 33 c-2 17 -7 32 -13 32 -5 0 -11 -15 -13 -32 l-3 -33 -240 0 -239 0
0 30 c0 17 -4 30 -10 30 -5 0 -10 -13 -10 -30 l0 -30 -235 0 -235 0 0 30 c0
17 -4 30 -10 30 -5 0 -10 -13 -10 -30 l0 -30 -229 0 -230 0 -3 33 c-2 17 -7
32 -13 32 -5 0 -11 -15 -13 -32 l-3 -33 -240 0 -239 0 0 30 c0 17 -4 30 -10
30 -5 0 -10 -13 -10 -30 l0 -30 -235 0 -235 0 0 30 c0 17 -4 30 -10 30 -5 0
-10 -13 -10 -30 l0 -30 -230 0 -230 0 0 330 0 330 230 0 230 0 0 -30z"/>
<path d="M3102 7183 c2 -10 10 -18 18 -18 8 0 16 8 18 18 2 12 -3 17 -18 17
-15 0 -20 -5 -18 -17z"/>
<path d="M3700 7060 l0 -130 30 0 c20 0 30 5 30 15 0 8 -7 15 -15 15 -12 0
-15 18 -15 100 0 82 3 100 15 100 8 0 15 7 15 15 0 10 -10 15 -30 15 l-30 0 0
-130z"/>
<path d="M3830 7175 c-7 -8 -21 -15 -31 -15 -30 0 -22 -18 9 -22 27 -3 27 -4
30 -80 2 -60 6 -78 17 -78 12 0 15 20 15 105 0 83 -3 105 -14 105 -7 0 -19 -7
-26 -15z"/>
<path d="M3943 7171 c-39 -19 -42 -31 -8 -31 25 0 25 -1 25 -80 0 -64 3 -80
15 -80 12 0 15 18 15 105 0 58 -3 104 -7 104 -5 -1 -23 -9 -40 -18z"/>
<path d="M4131 7171 c-27 -27 -36 -84 -22 -132 13 -42 35 -59 76 -59 41 0 63
17 76 59 24 81 -11 151 -76 151 -21 0 -43 -8 -54 -19z m77 -18 c22 -20 39 -78
24 -87 -12 -7 -75 81 -67 94 9 14 20 12 43 -7z m2 -135 c0 -16 -23 -19 -44 -4
-24 15 -43 77 -31 97 6 9 75 -76 75 -93z"/>
<path d="M4290 7179 c0 -6 9 -13 20 -16 18 -5 20 -14 20 -103 0 -89 -2 -98
-20 -103 -33 -8 -23 -27 15 -27 l35 0 0 130 0 130 -35 0 c-19 0 -35 -5 -35
-11z"/>
<path d="M3080 7125 c0 -8 5 -15 10 -15 6 0 10 -28 10 -65 0 -51 3 -65 15 -65
12 0 15 16 15 80 0 79 0 80 -25 80 -16 0 -25 -6 -25 -15z"/>
<path d="M3174 7126 c-10 -26 1 -139 14 -144 8 -2 12 9 12 37 0 60 15 93 43
89 20 -3 22 -9 25 -65 2 -47 7 -63 17 -63 11 0 15 13 15 53 0 55 12 77 41 77
22 0 29 -20 29 -81 0 -37 4 -49 15 -49 11 0 15 12 15 49 0 92 -26 124 -82 103
-22 -8 -35 -8 -48 0 -14 9 -25 9 -44 0 -16 -7 -26 -8 -26 -2 0 15 -20 12 -26
-4z"/>
<path d="M3434 7126 c-10 -26 1 -139 14 -144 8 -2 12 9 12 37 0 60 15 93 43
89 20 -3 22 -9 25 -65 2 -47 7 -63 17 -63 11 0 15 13 15 53 0 55 12 77 41 77
22 0 29 -20 29 -81 0 -37 4 -49 15 -49 11 0 15 12 15 49 0 92 -26 124 -82 103
-22 -8 -35 -8 -48 0 -14 9 -25 9 -44 0 -16 -7 -26 -8 -26 -2 0 15 -20 12 -26
-4z"/>
<path d="M4037 7134 c-14 -15 -6 -34 14 -34 14 0 19 5 17 17 -3 18 -20 27 -31
17z"/>
<path d="M4035 7011 c-8 -15 3 -31 21 -31 9 0 14 7 12 17 -4 20 -24 28 -33 14z"/>
<path d="M8033 7171 c-39 -19 -42 -31 -8 -31 25 0 25 -1 25 -80 0 -64 3 -80
15 -80 12 0 15 18 15 105 0 58 -3 104 -7 104 -5 -1 -23 -9 -40 -18z"/>
<path d="M7754 7126 c-10 -26 1 -139 14 -144 7 -2 12 6 12 21 0 53 13 89 36
99 25 12 33 38 11 38 -7 0 -19 -6 -26 -12 -11 -10 -14 -10 -18 0 -6 16 -22 15
-29 -2z"/>
<path d="M7866 7121 c-24 -26 -12 -59 22 -67 50 -12 65 -24 51 -40 -15 -18
-34 -18 -52 0 -9 9 -18 11 -28 5 -12 -8 -11 -12 5 -24 26 -20 80 -19 100 1 31
30 17 58 -39 76 -50 16 -47 34 5 30 43 -3 52 11 21 28 -30 16 -66 12 -85 -9z"/>
<path d="M9485 7170 c-4 -16 -11 -30 -16 -30 -5 0 -9 -7 -9 -15 0 -8 5 -15 10
-15 6 0 10 -28 10 -65 0 -51 3 -65 15 -65 12 0 15 14 15 65 0 50 3 65 14 65
24 0 30 21 7 27 -27 7 -27 33 -1 40 30 8 24 23 -9 23 -25 0 -31 -5 -36 -30z"/>
<path d="M10178 7179 c-20 -11 -24 -39 -6 -39 6 0 19 7 29 16 22 20 59 10 59
-17 0 -12 -10 -23 -25 -29 -32 -12 -32 -28 0 -36 32 -8 43 -43 19 -61 -25 -18
-40 -16 -61 6 -12 13 -23 17 -32 12 -11 -7 -9 -13 8 -30 25 -25 77 -28 109 -5
26 18 30 65 7 84 -11 9 -13 16 -5 24 14 14 13 59 -2 74 -15 15 -76 15 -100 1z"/>
<path d="M10073 7163 c-4 -10 -13 -22 -21 -27 -13 -8 -13 -10 1 -21 11 -8 17
-30 19 -71 3 -56 4 -59 31 -62 19 -2 27 1 27 12 0 9 -7 16 -15 16 -11 0 -15
12 -15 50 0 38 4 50 15 50 8 0 15 7 15 15 0 8 -7 15 -15 15 -8 0 -15 9 -15 20
0 25 -18 26 -27 3z"/>
<path d="M9573 7124 c-9 -25 5 -126 19 -135 7 -5 34 -8 61 -7 l47 2 0 78 c0
63 -3 78 -15 78 -12 0 -15 -13 -15 -60 0 -48 -4 -61 -19 -70 -32 -16 -51 12
-51 76 0 52 -14 72 -27 38z"/>
<path d="M9740 7060 c0 -63 3 -80 15 -80 10 0 15 15 17 56 3 60 20 83 52 71
12 -5 16 -20 16 -67 0 -47 3 -60 15 -60 12 0 15 14 15 64 0 85 -27 114 -80 86
-13 -7 -21 -7 -25 0 -16 27 -25 3 -25 -70z"/>
<path d="M9935 7128 c-29 -16 -35 -28 -35 -74 0 -49 23 -74 66 -74 32 0 74 24
62 35 -4 4 -21 3 -37 -3 -39 -14 -63 7 -59 51 4 37 30 57 55 41 10 -6 24 -9
31 -6 10 3 9 8 -4 23 -19 21 -49 24 -79 7z"/>
<path d="M11970 7156 c0 -34 -1 -34 -29 -23 -72 27 -123 -80 -65 -137 18 -19
65 -21 82 -4 9 9 12 9 12 0 0 -7 7 -12 15 -12 12 0 15 18 15 105 0 87 -3 105
-15 105 -10 0 -15 -10 -15 -34z m-10 -72 c13 -33 -7 -79 -35 -79 -30 0 -52 47
-37 79 16 36 59 36 72 0z"/>
<path d="M11754 7126 c-10 -26 1 -139 14 -144 7 -2 12 6 12 21 0 53 13 89 36
99 25 12 33 38 11 38 -7 0 -19 -6 -26 -12 -11 -10 -14 -10 -18 0 -6 16 -22 15
-29 -2z"/>
<path d="M15130 7156 c0 -34 -1 -34 -29 -23 -72 27 -123 -80 -65 -137 18 -19
65 -21 82 -4 9 9 12 9 12 0 0 -7 7 -12 15 -12 12 0 15 18 15 105 0 87 -3 105
-15 105 -10 0 -15 -10 -15 -34z m-10 -72 c13 -33 -7 -79 -35 -79 -30 0 -52 47
-37 79 16 36 59 36 72 0z"/>
<path d="M14365 7115 c-35 -34 -30 -101 9 -127 23 -16 75 -8 96 14 44 47 8
138 -55 138 -14 0 -37 -11 -50 -25z m85 -24 c16 -31 12 -59 -12 -75 -41 -29
-84 25 -58 73 14 27 56 28 70 2z"/>
<path d="M14520 7035 c0 -87 3 -105 15 -105 10 0 15 10 15 28 0 26 2 28 35 24
51 -6 75 19 75 75 0 65 -41 99 -90 73 -13 -7 -21 -7 -25 0 -18 28 -25 0 -25
-95z m98 63 c25 -25 5 -98 -28 -98 -18 0 -40 32 -40 59 0 30 16 51 40 51 9 0
21 -5 28 -12z"/>
<path d="M14725 7128 c-29 -16 -35 -28 -35 -74 0 -49 23 -74 66 -74 32 0 74
24 62 35 -4 4 -21 3 -37 -3 -39 -14 -63 7 -59 51 4 37 30 57 55 41 10 -6 24
-9 31 -6 10 3 9 8 -4 23 -19 21 -49 24 -79 7z"/>
<path d="M14865 7115 c-35 -34 -30 -101 9 -127 23 -16 75 -8 96 14 44 47 8
138 -55 138 -14 0 -37 -11 -50 -25z m85 -24 c16 -31 12 -59 -12 -75 -41 -29
-84 25 -58 73 14 27 56 28 70 2z"/>
<path d="M15225 7128 c-28 -16 -35 -28 -35 -68 0 -53 23 -80 69 -80 21 0 44 6
50 14 16 19 -3 30 -29 16 -24 -13 -60 2 -60 25 0 11 13 15 55 15 50 0 55 2 55
23 0 28 -9 41 -37 56 -27 14 -42 14 -68 -1z m63 -30 c21 -21 13 -28 -28 -28
-22 0 -40 4 -40 8 0 14 23 32 40 32 9 0 21 -5 28 -12z"/>
<path d="M16660 7160 c0 -6 7 -13 15 -16 11 -5 15 -23 15 -79 0 -56 -4 -74
-15 -79 -30 -11 -14 -26 30 -26 33 0 45 4 45 15 0 8 -4 15 -10 15 -6 0 -10 32
-10 75 0 43 4 75 10 75 6 0 10 7 10 15 0 11 -12 15 -45 15 -25 0 -45 -5 -45
-10z"/>
<path d="M16890 7155 c0 -10 11 -15 35 -15 l35 0 0 -90 c0 -73 3 -90 15 -90
12 0 15 17 15 90 l0 90 35 0 c24 0 35 5 35 15 0 12 -16 15 -85 15 -69 0 -85
-3 -85 -15z"/>
<path d="M17060 7114 c0 -4 11 -38 25 -76 30 -84 31 -98 5 -98 -11 0 -20 -7
-20 -15 0 -16 27 -20 47 -7 11 7 73 172 73 194 0 4 -6 8 -13 8 -7 0 -22 -26
-32 -57 l-18 -58 -19 58 c-12 33 -25 57 -34 57 -8 0 -14 -3 -14 -6z"/>
<path d="M17217 7113 c-4 -3 -7 -51 -7 -105 0 -80 3 -98 15 -98 10 0 15 10 15
30 0 27 2 30 25 24 77 -19 125 65 74 130 -22 28 -48 33 -80 16 -13 -7 -19 -7
-19 0 0 11 -13 13 -23 3z m105 -49 c15 -32 -7 -79 -37 -79 -28 0 -48 46 -35
79 13 36 56 36 72 0z"/>
<path d="M17405 7095 c-51 -50 -17 -135 55 -135 39 0 73 24 48 33 -7 2 -21 0
-30 -4 -21 -11 -46 -2 -59 22 -9 18 -5 19 51 19 54 0 60 2 60 20 0 29 -44 70
-75 70 -14 0 -37 -11 -50 -25z m84 -18 c15 -19 4 -27 -36 -27 -31 0 -44 16
-26 33 11 12 50 8 62 -6z"/>
<path d="M16782 7038 c3 -7 25 -14 51 -16 37 -2 47 0 47 12 0 12 -12 16 -51
16 -36 0 -49 -4 -47 -12z"/>
<path d="M898 6099 c-20 -11 -24 -39 -6 -39 6 0 19 7 29 16 22 20 59 10 59
-17 0 -12 -10 -23 -25 -29 -32 -12 -32 -28 0 -36 32 -8 43 -43 19 -61 -25 -18
-40 -16 -61 6 -12 13 -23 17 -32 12 -11 -7 -9 -13 8 -30 25 -25 77 -28 109 -5
26 18 30 65 7 84 -11 9 -13 16 -5 24 14 14 13 59 -2 74 -15 15 -76 15 -100 1z"/>
<path d="M1083 6091 c-39 -19 -42 -31 -8 -31 25 0 25 -1 25 -80 0 -64 3 -80
15 -80 12 0 15 18 15 105 0 58 -3 104 -7 104 -5 -1 -23 -9 -40 -18z"/>
<path d="M3826 6088 c-21 -30 1 -45 27 -17 22 23 40 24 58 3 18 -22 -9 -69
-67 -114 -64 -51 -59 -60 37 -60 60 0 80 3 77 13 -3 6 -26 14 -53 17 l-49 5
30 25 c87 74 84 150 -6 150 -29 0 -43 -6 -54 -22z"/>
<path d="M3996 6088 c-9 -37 -7 -88 5 -88 6 0 19 4 29 10 42 23 82 -25 55 -66
-19 -29 -38 -31 -62 -5 -13 14 -23 17 -33 11 -12 -7 -11 -12 4 -29 23 -25 87
-28 110 -6 53 54 8 141 -64 122 -16 -4 -20 0 -20 19 0 22 4 24 50 24 38 0 50
4 50 15 0 12 -13 15 -59 15 -52 0 -59 -2 -65 -22z"/>
<path d="M4306 6088 c-21 -30 1 -45 27 -17 22 23 40 24 58 3 18 -22 -9 -69
-67 -114 -64 -51 -59 -60 37 -60 60 0 80 3 77 13 -3 6 -26 14 -53 17 l-49 5
30 25 c87 74 84 150 -6 150 -29 0 -43 -6 -54 -22z"/>
<path d="M4502 6040 c-29 -39 -50 -74 -47 -80 3 -5 28 -10 56 -10 46 0 49 -2
49 -25 0 -16 6 -25 15 -25 9 0 15 9 15 25 0 16 6 25 15 25 8 0 15 7 15 15 0 8
-7 15 -15 15 -12 0 -15 14 -15 65 0 87 -18 86 -88 -5z m58 -20 c0 -39 -1 -40
-35 -40 l-36 0 32 40 c18 22 34 40 36 40 2 0 3 -18 3 -40z"/>
<path d="M6286 6088 c-21 -30 1 -45 27 -17 22 23 40 24 58 3 18 -22 -9 -69
-67 -114 -64 -51 -59 -60 37 -60 60 0 80 3 77 13 -3 6 -26 14 -53 17 l-49 5
30 25 c87 74 84 150 -6 150 -29 0 -43 -6 -54 -22z"/>
<path d="M6471 6091 c-27 -27 -36 -84 -22 -132 13 -42 35 -59 76 -59 41 0 63
17 76 59 24 81 -11 151 -76 151 -21 0 -43 -8 -54 -19z m77 -18 c22 -20 39 -78
24 -87 -12 -7 -75 81 -67 94 9 14 20 12 43 -7z m2 -135 c0 -16 -23 -19 -44 -4
-24 15 -43 77 -31 97 6 9 75 -76 75 -93z"/>
<path d="M6823 6091 c-39 -19 -42 -31 -8 -31 25 0 25 -1 25 -80 0 -64 3 -80
15 -80 12 0 15 18 15 105 0 58 -3 104 -7 104 -5 -1 -23 -9 -40 -18z"/>
<path d="M6940 6090 c-41 -41 -20 -107 38 -125 22 -6 23 -8 7 -32 -18 -27 -14
-39 8 -30 18 7 66 88 73 124 13 66 -77 112 -126 63z m90 -29 c15 -29 13 -39
-14 -56 -31 -21 -66 -5 -66 28 0 46 59 66 80 28z"/>
<path d="M8813 6091 c-39 -19 -42 -31 -8 -31 25 0 25 -1 25 -80 0 -64 3 -80
15 -80 12 0 15 18 15 105 0 58 -3 104 -7 104 -5 -1 -23 -9 -40 -18z"/>
<path d="M8917 6058 c-7 -59 4 -75 37 -52 26 18 31 18 50 -2 25 -24 20 -63 -9
-76 -21 -10 -29 -8 -48 10 -21 20 -37 21 -37 1 0 -18 34 -39 63 -39 50 0 77
24 77 69 0 50 -27 75 -75 69 -35 -4 -43 4 -27 29 4 6 27 13 51 15 25 2 46 9
49 16 3 9 -14 12 -61 12 l-64 0 -6 -52z"/>
<path d="M9293 6091 c-39 -19 -42 -31 -8 -31 25 0 25 -1 25 -80 0 -64 3 -80
15 -80 12 0 15 18 15 105 0 58 -3 104 -7 104 -5 -1 -23 -9 -40 -18z"/>
<path d="M9431 6045 c-66 -83 -66 -95 -1 -95 47 0 50 -2 50 -25 0 -16 6 -25
15 -25 9 0 15 9 15 25 0 18 5 25 20 25 11 0 20 7 20 15 0 8 -9 15 -20 15 -18
0 -20 7 -20 65 0 84 -13 84 -79 0z m46 -62 c-3 -2 -17 -3 -32 -1 l-27 3 29 36
28 37 3 -35 c2 -19 1 -37 -1 -40z"/>
<path d="M10310 6095 c-7 -8 -21 -15 -31 -15 -30 0 -22 -18 9 -22 27 -3 27 -4
30 -80 2 -60 6 -78 17 -78 12 0 15 20 15 105 0 83 -3 105 -14 105 -7 0 -19 -7
-26 -15z"/>
<path d="M10406 6088 c-21 -30 1 -45 27 -17 22 23 40 24 58 3 18 -22 -9 -69
-67 -114 -64 -51 -59 -60 37 -60 60 0 80 3 77 13 -3 6 -26 14 -53 17 l-49 5
30 25 c87 74 84 150 -6 150 -29 0 -43 -6 -54 -22z"/>
<path d="M10820 6095 c-7 -8 -21 -15 -31 -15 -30 0 -22 -18 9 -22 27 -3 27 -4
30 -80 2 -60 6 -78 17 -78 12 0 15 20 15 105 0 83 -3 105 -14 105 -7 0 -19 -7
-26 -15z"/>
<path d="M10940 6095 c-7 -8 -21 -15 -31 -15 -30 0 -22 -18 9 -22 27 -3 27 -4
30 -80 2 -60 6 -78 17 -78 12 0 15 20 15 105 0 83 -3 105 -14 105 -7 0 -19 -7
-26 -15z"/>
<path d="M12770 6095 c0 -12 13 -15 55 -15 30 0 55 -2 55 -5 0 -3 -18 -41 -40
-85 -22 -44 -40 -82 -40 -85 0 -3 8 -5 18 -5 12 1 30 29 60 93 23 51 42 98 42
105 0 8 -22 12 -75 12 -60 0 -75 -3 -75 -15z"/>
<path d="M13309 6084 c-31 -33 -34 -130 -5 -163 25 -27 79 -28 106 -1 42 42
11 120 -48 120 -15 0 -34 -6 -40 -12 -10 -10 -10 -6 -2 19 14 38 32 46 65 31
30 -13 43 -5 25 17 -20 24 -73 19 -101 -11z m79 -86 c35 -35 -15 -99 -53 -68
-15 13 -21 61 -8 73 11 11 48 8 61 -5z"/>
<path d="M16261 6091 c-27 -27 -36 -84 -22 -132 13 -42 35 -59 76 -59 41 0 63
17 76 59 24 81 -11 151 -76 151 -21 0 -43 -8 -54 -19z m77 -18 c22 -20 39 -78
24 -87 -12 -7 -75 81 -67 94 9 14 20 12 43 -7z m2 -135 c0 -16 -23 -19 -44 -4
-24 15 -43 77 -31 97 6 9 75 -76 75 -93z"/>
<path d="M758 5449 c-2 -193 -1 -353 1 -355 2 -2 3561 -4 7908 -4 l7903 0 0
355 0 355 -7905 0 -7904 0 -3 -351z m484 299 c2 -18 8 -33 13 -33 6 0 11 15
13 33 l3 32 240 0 239 0 0 -29 c0 -17 5 -33 10 -36 6 -4 10 8 10 29 l0 36 235
0 235 0 0 -36 c0 -21 4 -33 10 -29 6 3 10 19 10 36 l0 29 229 0 230 0 3 -32
c2 -18 8 -33 13 -33 6 0 11 15 13 33 l3 32 240 0 239 0 0 -29 c0 -17 5 -33 10
-36 6 -4 10 8 10 29 l0 36 235 0 235 0 0 -36 c0 -21 4 -33 10 -29 6 3 10 19
10 36 l0 29 230 0 230 0 0 -330 0 -330 -230 0 -230 0 0 30 c0 17 -4 30 -10 30
-5 0 -10 -13 -10 -30 l0 -30 -235 0 -235 0 0 30 c0 17 -4 30 -10 30 -5 0 -10
-13 -10 -30 l0 -30 -239 0 -240 0 -3 27 c-4 39 -28 42 -28 4 l0 -31 -230 0
-230 0 0 30 c0 17 -4 30 -10 30 -5 0 -10 -13 -10 -30 l0 -30 -235 0 -235 0 0
30 c0 17 -4 30 -10 30 -5 0 -10 -13 -10 -30 l0 -30 -239 0 -240 0 -3 27 c-4
39 -28 42 -28 4 l0 -31 -230 0 -230 0 0 330 0 330 229 0 230 0 3 -32z m3468 3
c0 -17 5 -33 10 -36 6 -4 10 8 10 29 l0 36 235 0 235 0 0 -36 c0 -21 4 -33 10
-29 6 3 10 19 10 36 l0 29 230 0 230 0 0 -29 c0 -42 18 -48 22 -9 l3 33 243 3
242 2 0 -29 c0 -17 5 -33 10 -36 6 -4 10 8 10 29 l0 36 235 0 235 0 0 -330 0
-330 -235 0 -235 0 0 30 c0 17 -4 30 -10 30 -5 0 -10 -13 -10 -30 l0 -30 -245
0 -245 0 0 30 c0 17 -4 30 -10 30 -5 0 -10 -13 -10 -30 l0 -30 -230 0 -230 0
0 30 c0 17 -4 30 -10 30 -5 0 -10 -13 -10 -30 l0 -30 -235 0 -235 0 0 30 c0
17 -4 30 -10 30 -5 0 -10 -13 -10 -30 l0 -30 -245 0 -245 0 0 323 c0 178 3
327 7 330 3 4 114 7 245 7 l238 0 0 -29z m2450 0 c0 -17 5 -33 10 -36 6 -4 10
8 10 29 l0 36 245 0 245 0 0 -29 c0 -17 5 -33 10 -36 6 -4 10 8 10 29 l0 36
235 0 235 0 0 -36 c0 -21 4 -33 10 -29 6 3 10 19 10 36 l0 29 239 0 240 0 3
-32 c2 -18 8 -33 13 -33 6 0 11 15 13 33 l3 32 230 0 229 0 0 -330 0 -330
-230 0 -230 0 0 30 c0 20 -5 30 -15 30 -10 0 -15 -10 -15 -30 l0 -30 -240 0
-240 0 0 30 c0 17 -4 30 -10 30 -5 0 -10 -13 -10 -30 l0 -30 -235 0 -235 0 0
30 c0 17 -4 30 -10 30 -5 0 -10 -13 -10 -30 l0 -30 -245 0 -245 0 0 30 c0 17
-4 30 -10 30 -5 0 -10 -13 -10 -30 l0 -30 -230 0 -230 0 0 330 0 330 230 0
230 0 0 -29z m2480 -7 c0 -21 4 -33 10 -29 6 3 10 19 10 36 l0 29 239 0 240 0
3 -32 c2 -18 8 -33 13 -33 6 0 11 15 13 33 l3 32 230 0 229 0 0 -330 0 -330
-230 0 -230 0 0 30 c0 20 -5 30 -15 30 -10 0 -15 -10 -15 -30 l0 -30 -240 0
-240 0 0 30 c0 17 -4 30 -10 30 -5 0 -10 -13 -10 -30 l0 -30 -235 0 -235 0 0
330 0 330 235 0 235 0 0 -36z m1480 0 c0 -21 4 -33 10 -29 6 3 10 19 10 36 l0
29 239 0 240 0 3 -32 c2 -18 8 -33 13 -33 6 0 11 15 13 33 l3 32 230 0 229 0
0 -29 c0 -17 5 -33 10 -36 6 -4 10 8 10 29 l0 36 235 0 235 0 0 -36 c0 -21 4
-33 10 -29 6 3 10 19 10 36 l0 29 240 0 240 0 0 -330 0 -330 -240 0 -240 0 0
30 c0 17 -4 30 -10 30 -5 0 -10 -13 -10 -30 l0 -30 -235 0 -235 0 0 30 c0 17
-4 30 -10 30 -5 0 -10 -13 -10 -30 l0 -30 -230 0 -230 0 0 30 c0 20 -5 30 -15
30 -10 0 -15 -10 -15 -30 l0 -30 -240 0 -240 0 0 30 c0 17 -4 30 -10 30 -5 0
-10 -13 -10 -30 l0 -30 -235 0 -235 0 0 330 0 330 235 0 235 0 0 -36z m2470 7
c0 -17 5 -33 10 -36 6 -4 10 8 10 29 l0 36 235 0 235 0 0 -36 c0 -21 4 -33 10
-29 6 3 10 19 10 36 l0 29 239 0 240 0 3 -32 c2 -18 8 -33 13 -33 6 0 11 15
13 33 l3 32 230 0 229 0 0 -35 c0 -19 5 -35 10 -35 6 0 10 16 10 35 l0 35 235
0 235 0 0 -36 c0 -21 4 -33 10 -29 6 3 10 19 10 36 l0 29 239 0 240 0 3 -32
c2 -18 8 -33 13 -33 6 0 11 15 13 33 l3 32 230 0 229 0 0 -330 0 -330 -230 0
-230 0 0 30 c0 20 -5 30 -15 30 -10 0 -15 -10 -15 -30 l0 -30 -240 0 -240 0 0
30 c0 17 -4 30 -10 30 -5 0 -10 -13 -10 -30 l0 -30 -235 0 -235 0 0 30 c0 17
-4 30 -10 30 -5 0 -10 -13 -10 -30 l0 -30 -230 0 -230 0 0 30 c0 20 -5 30 -15
30 -10 0 -15 -10 -15 -30 l0 -30 -240 0 -240 0 0 30 c0 17 -4 30 -10 30 -5 0
-10 -13 -10 -30 l0 -30 -235 0 -235 0 0 30 c0 17 -4 30 -10 30 -5 0 -10 -13
-10 -30 l0 -30 -230 0 -230 0 0 330 0 330 230 0 230 0 0 -29z"/>
<path d="M1872 5523 c2 -10 10 -18 18 -18 8 0 16 8 18 18 2 12 -3 17 -18 17
-15 0 -20 -5 -18 -17z"/>
<path d="M2470 5400 l0 -130 35 0 c24 0 35 5 35 15 0 8 -9 15 -20 15 -19 0
-20 7 -20 100 0 93 1 100 20 100 11 0 20 7 20 15 0 10 -11 15 -35 15 l-35 0 0
-130z"/>
<path d="M2593 5511 c-39 -19 -42 -31 -8 -31 25 0 25 -1 25 -80 0 -64 3 -80
15 -80 12 0 15 18 15 105 0 58 -3 104 -7 104 -5 -1 -23 -9 -40 -18z"/>
<path d="M2730 5515 c-7 -8 -21 -15 -31 -15 -30 0 -22 -18 9 -22 27 -3 27 -4
30 -80 2 -60 6 -78 17 -78 12 0 15 20 15 105 0 83 -3 105 -14 105 -7 0 -19 -7
-26 -15z"/>
<path d="M2887 5478 c-7 -59 4 -75 37 -52 26 18 31 18 50 -2 25 -24 20 -63 -9
-76 -21 -10 -29 -8 -48 10 -21 20 -37 21 -37 1 0 -18 34 -39 63 -39 50 0 77
24 77 69 0 50 -27 75 -75 69 -35 -4 -43 4 -27 29 4 6 27 13 51 15 25 2 46 9
49 16 3 9 -14 12 -61 12 l-64 0 -6 -52z"/>
<path d="M3050 5515 c0 -8 9 -15 20 -15 19 0 20 -7 20 -100 0 -93 -1 -100 -20
-100 -11 0 -20 -7 -20 -15 0 -10 11 -15 35 -15 l35 0 0 130 0 130 -35 0 c-24
0 -35 -5 -35 -15z"/>
<path d="M1850 5465 c0 -8 5 -15 10 -15 6 0 10 -28 10 -65 0 -51 3 -65 15 -65
12 0 15 16 15 80 0 79 0 80 -25 80 -16 0 -25 -6 -25 -15z"/>
<path d="M1950 5400 c0 -64 3 -80 15 -80 11 0 15 12 15 49 0 64 7 81 35 81 26
0 35 -22 35 -87 0 -31 4 -43 15 -43 10 0 15 16 17 63 3 59 4 62 28 62 24 0 25
-3 28 -62 2 -47 7 -63 17 -63 12 0 15 15 15 64 0 85 -27 114 -80 86 -13 -7
-27 -6 -45 2 -20 9 -31 9 -45 0 -12 -7 -21 -8 -25 -2 -16 27 -25 3 -25 -70z"/>
<path d="M2210 5400 c0 -64 3 -80 15 -80 11 0 15 12 15 49 0 64 7 81 35 81 26
0 35 -22 35 -87 0 -31 4 -43 15 -43 10 0 15 16 17 63 3 59 4 62 28 62 24 0 25
-3 28 -62 2 -47 7 -63 17 -63 12 0 15 15 15 64 0 85 -27 114 -80 86 -13 -7
-27 -6 -45 2 -20 9 -31 9 -45 0 -12 -7 -21 -8 -25 -2 -16 27 -25 3 -25 -70z"/>
<path d="M2810 5460 c0 -15 5 -20 18 -18 9 2 17 10 17 18 0 8 -8 16 -17 18
-13 2 -18 -3 -18 -18z"/>
<path d="M2810 5340 c0 -15 5 -20 18 -18 9 2 17 10 17 18 0 8 -8 16 -17 18
-13 2 -18 -3 -18 -18z"/>
<path d="M5526 5515 c-32 -32 -9 -50 25 -19 26 23 59 10 59 -24 0 -19 -15 -41
-55 -78 -30 -29 -55 -57 -55 -63 0 -7 28 -11 75 -11 60 0 75 3 75 15 0 11 -12
15 -52 15 l-52 0 41 35 c77 66 75 137 -4 143 -27 2 -46 -2 -57 -13z"/>
<path d="M5260 5400 c0 -64 3 -80 15 -80 11 0 15 12 15 48 0 49 20 82 48 82 7
0 12 7 12 15 0 17 -14 19 -40 5 -13 -7 -21 -7 -25 0 -16 27 -25 3 -25 -70z"/>
<path d="M5376 5467 c-11 -8 -17 -23 -14 -38 2 -18 13 -27 46 -37 23 -8 42
-20 42 -27 0 -21 -39 -29 -58 -12 -9 8 -23 12 -30 10 -26 -10 19 -43 58 -43
41 0 60 14 60 46 0 27 -15 40 -57 49 -20 4 -33 13 -33 22 0 13 8 14 40 9 43
-7 54 6 21 24 -27 14 -54 13 -75 -3z"/>
<path d="M8033 5511 c-39 -19 -42 -31 -8 -31 25 0 25 -1 25 -80 0 -64 3 -80
15 -80 12 0 15 18 15 105 0 58 -3 104 -7 104 -5 -1 -23 -9 -40 -18z"/>
<path d="M7754 5466 c-10 -26 1 -139 14 -144 7 -2 12 6 12 21 0 53 13 89 36
99 25 12 33 38 11 38 -7 0 -19 -6 -26 -12 -11 -10 -14 -10 -18 0 -6 16 -22 15
-29 -2z"/>
<path d="M7866 5461 c-24 -26 -12 -59 22 -67 50 -12 65 -24 51 -40 -15 -18
-34 -18 -52 0 -9 9 -18 11 -28 5 -12 -8 -11 -12 5 -24 26 -20 80 -19 100 1 31
30 17 58 -39 76 -50 16 -47 34 5 30 43 -3 52 11 21 28 -30 16 -66 12 -85 -9z"/>
<path d="M9485 5510 c-4 -16 -11 -30 -16 -30 -5 0 -9 -7 -9 -15 0 -8 5 -15 10
-15 6 0 10 -28 10 -65 0 -51 3 -65 15 -65 12 0 15 14 15 65 0 50 3 65 14 65
24 0 30 21 7 27 -27 7 -27 33 -1 40 30 8 24 23 -9 23 -25 0 -31 -5 -36 -30z"/>
<path d="M10178 5519 c-20 -11 -24 -39 -6 -39 6 0 19 7 29 16 22 20 59 10 59
-17 0 -12 -10 -23 -25 -29 -32 -12 -32 -28 0 -36 32 -8 43 -43 19 -61 -25 -18
-40 -16 -61 6 -12 13 -23 17 -32 12 -11 -7 -9 -13 8 -30 25 -25 77 -28 109 -5
26 18 30 65 7 84 -11 9 -13 16 -5 24 14 14 13 59 -2 74 -15 15 -76 15 -100 1z"/>
<path d="M10073 5503 c-4 -10 -13 -22 -21 -27 -13 -8 -13 -10 1 -21 11 -8 17
-30 19 -71 3 -56 4 -59 31 -62 19 -2 27 1 27 12 0 9 -7 16 -15 16 -11 0 -15
12 -15 50 0 38 4 50 15 50 8 0 15 7 15 15 0 8 -7 15 -15 15 -8 0 -15 9 -15 20
0 25 -18 26 -27 3z"/>
<path d="M9573 5464 c-9 -25 5 -126 19 -135 7 -5 34 -8 61 -7 l47 2 0 78 c0
63 -3 78 -15 78 -12 0 -15 -13 -15 -60 0 -48 -4 -61 -19 -70 -32 -16 -51 12
-51 76 0 52 -14 72 -27 38z"/>
<path d="M9740 5400 c0 -63 3 -80 15 -80 10 0 15 15 17 56 3 60 20 83 52 71
12 -5 16 -20 16 -67 0 -47 3 -60 15 -60 12 0 15 14 15 64 0 85 -27 114 -80 86
-13 -7 -21 -7 -25 0 -16 27 -25 3 -25 -70z"/>
<path d="M9935 5468 c-29 -16 -35 -28 -35 -74 0 -49 23 -74 66 -74 32 0 74 24
62 35 -4 4 -21 3 -37 -3 -39 -14 -63 7 -59 51 4 37 30 57 55 41 10 -6 24 -9
31 -6 10 3 9 8 -4 23 -19 21 -49 24 -79 7z"/>
<path d="M11282 5523 c2 -10 10 -18 18 -18 8 0 16 8 18 18 2 12 -3 17 -18 17
-15 0 -20 -5 -18 -17z"/>
<path d="M11880 5400 l0 -130 30 0 c20 0 30 5 30 15 0 8 -7 15 -15 15 -12 0
-15 18 -15 100 0 82 3 100 15 100 8 0 15 7 15 15 0 10 -10 15 -30 15 l-30 0 0
-130z"/>
<path d="M12011 5465 c-66 -83 -66 -95 -1 -95 47 0 50 -2 50 -25 0 -16 6 -25
15 -25 9 0 15 9 15 25 0 18 5 25 20 25 11 0 20 7 20 15 0 8 -9 15 -20 15 -18
0 -20 7 -20 65 0 84 -13 84 -79 0z m46 -62 c-3 -2 -17 -3 -32 -1 l-27 3 29 36
28 37 3 -35 c2 -19 1 -37 -1 -40z"/>
<path d="M12251 5511 c-27 -27 -36 -84 -22 -132 13 -42 35 -59 76 -59 41 0 63
17 76 59 24 81 -11 151 -76 151 -21 0 -43 -8 -54 -19z m77 -18 c22 -20 39 -78
24 -87 -12 -7 -75 81 -67 94 9 14 20 12 43 -7z m2 -135 c0 -16 -23 -19 -44 -4
-24 15 -43 77 -31 97 6 9 75 -76 75 -93z"/>
<path d="M12410 5519 c0 -6 9 -13 20 -16 18 -5 20 -14 20 -103 0 -89 -2 -98
-20 -103 -33 -8 -23 -27 15 -27 l35 0 0 130 0 130 -35 0 c-19 0 -35 -5 -35
-11z"/>
<path d="M11260 5465 c0 -8 5 -15 10 -15 6 0 10 -28 10 -65 0 -51 3 -65 15
-65 12 0 15 16 15 80 0 79 0 80 -25 80 -16 0 -25 -6 -25 -15z"/>
<path d="M11354 5466 c-10 -26 1 -139 14 -144 8 -2 12 9 12 37 0 60 15 93 43
89 20 -3 22 -9 25 -65 2 -47 7 -63 17 -63 11 0 15 13 15 53 0 55 12 77 41 77
22 0 29 -20 29 -81 0 -37 4 -49 15 -49 11 0 15 12 15 49 0 92 -26 124 -82 103
-22 -8 -35 -8 -48 0 -14 9 -25 9 -44 0 -16 -7 -26 -8 -26 -2 0 15 -20 12 -26
-4z"/>
<path d="M11614 5466 c-10 -26 1 -139 14 -144 8 -2 12 9 12 37 0 60 15 93 43
89 20 -3 22 -9 25 -65 2 -47 7 -63 17 -63 11 0 15 13 15 53 0 55 12 77 41 77
22 0 29 -20 29 -81 0 -37 4 -49 15 -49 11 0 15 12 15 49 0 92 -26 124 -82 103
-22 -8 -35 -8 -48 0 -14 9 -25 9 -44 0 -16 -7 -26 -8 -26 -2 0 15 -20 12 -26
-4z"/>
<path d="M12157 5474 c-14 -15 -6 -34 14 -34 14 0 19 5 17 17 -3 18 -20 27
-31 17z"/>
<path d="M12155 5351 c-8 -15 3 -31 21 -31 9 0 14 7 12 17 -4 20 -24 28 -33
14z"/>
<path d="M15130 5496 c0 -34 -1 -34 -29 -23 -72 27 -123 -80 -65 -137 18 -19
65 -21 82 -4 9 9 12 9 12 0 0 -7 7 -12 15 -12 12 0 15 18 15 105 0 87 -3 105
-15 105 -10 0 -15 -10 -15 -34z m-10 -72 c13 -33 -7 -79 -35 -79 -30 0 -52 47
-37 79 16 36 59 36 72 0z"/>
<path d="M14365 5455 c-35 -34 -30 -101 9 -127 23 -16 75 -8 96 14 44 47 8
138 -55 138 -14 0 -37 -11 -50 -25z m85 -24 c16 -31 12 -59 -12 -75 -41 -29
-84 25 -58 73 14 27 56 28 70 2z"/>
<path d="M14520 5375 c0 -87 3 -105 15 -105 10 0 15 10 15 28 0 26 2 28 35 24
51 -6 75 19 75 75 0 65 -41 99 -90 73 -13 -7 -21 -7 -25 0 -18 28 -25 0 -25
-95z m98 63 c25 -25 5 -98 -28 -98 -18 0 -40 32 -40 59 0 30 16 51 40 51 9 0
21 -5 28 -12z"/>
<path d="M14725 5468 c-29 -16 -35 -28 -35 -74 0 -49 23 -74 66 -74 32 0 74
24 62 35 -4 4 -21 3 -37 -3 -39 -14 -63 7 -59 51 4 37 30 57 55 41 10 -6 24
-9 31 -6 10 3 9 8 -4 23 -19 21 -49 24 -79 7z"/>
<path d="M14865 5455 c-35 -34 -30 -101 9 -127 23 -16 75 -8 96 14 44 47 8
138 -55 138 -14 0 -37 -11 -50 -25z m85 -24 c16 -31 12 -59 -12 -75 -41 -29
-84 25 -58 73 14 27 56 28 70 2z"/>
<path d="M15225 5468 c-28 -16 -35 -28 -35 -68 0 -53 23 -80 69 -80 21 0 44 6
50 14 16 19 -3 30 -29 16 -24 -13 -60 2 -60 25 0 11 13 15 55 15 50 0 55 2 55
23 0 28 -9 41 -37 56 -27 14 -42 14 -68 -1z m63 -30 c21 -21 13 -28 -28 -28
-22 0 -40 4 -40 8 0 14 23 32 40 32 9 0 21 -5 28 -12z"/>
<path d="M16677 5492 c-37 -41 -13 -82 61 -102 35 -9 43 -15 40 -32 -4 -30
-38 -39 -77 -21 -38 19 -51 11 -26 -17 40 -44 145 -15 145 39 0 24 -41 57 -80
66 -33 7 -55 29 -45 45 8 13 72 13 80 0 3 -5 12 -7 21 -3 13 5 13 8 -2 24 -23
26 -95 26 -117 1z"/>
<path d="M16950 5495 c0 -10 10 -15 30 -15 l30 0 0 -90 c0 -83 1 -90 20 -90
19 0 20 7 20 90 l0 90 35 0 c24 0 35 5 35 15 0 12 -16 15 -85 15 -69 0 -85 -3
-85 -15z"/>
<path d="M17120 5446 c0 -9 11 -45 25 -82 14 -36 25 -68 25 -70 0 -3 -11 -9
-25 -14 -14 -5 -25 -14 -25 -20 0 -15 46 -12 59 4 14 17 73 188 66 194 -12 13
-33 -11 -45 -52 -7 -25 -15 -46 -19 -46 -3 0 -13 21 -21 47 -15 46 -40 70 -40
39z"/>
<path d="M17270 5355 c0 -87 3 -105 15 -105 10 0 15 10 15 28 0 26 2 28 35 24
51 -6 75 19 75 75 0 65 -41 99 -90 73 -13 -7 -21 -7 -25 0 -18 28 -25 0 -25
-95z m98 63 c25 -25 5 -98 -28 -98 -18 0 -40 32 -40 59 0 30 16 51 40 51 9 0
21 -5 28 -12z"/>
<path d="M17475 5448 c-28 -16 -35 -28 -35 -68 0 -53 23 -80 69 -80 21 0 44 6
50 14 16 19 -3 30 -29 16 -24 -13 -60 2 -60 25 0 11 13 15 55 15 50 0 55 2 55
23 0 28 -9 41 -37 56 -27 14 -42 14 -68 -1z m63 -30 c21 -21 13 -28 -28 -28
-22 0 -40 4 -40 8 0 14 23 32 40 32 9 0 21 -5 28 -12z"/>
<path d="M16840 5375 c0 -11 12 -15 45 -15 33 0 45 4 45 15 0 11 -12 15 -45
15 -33 0 -45 -4 -45 -15z"/>
<path d="M906 4441 c-13 -14 -14 -21 -5 -26 7 -5 16 -1 21 9 11 19 41 21 57 3
12 -15 -3 -37 -26 -37 -23 0 -14 -28 10 -32 16 -2 22 -10 22 -28 0 -32 -42
-41 -62 -14 -9 13 -16 15 -24 7 -18 -18 19 -44 59 -41 27 2 40 10 51 30 14 24
14 28 -2 46 -12 13 -15 22 -8 27 15 8 14 48 -1 63 -19 19 -73 14 -92 -7z"/>
<path d="M1068 4443 c-35 -18 -36 -33 -3 -33 24 0 25 -2 25 -65 0 -37 4 -65
10 -65 6 0 10 37 10 90 0 50 -3 90 -7 89 -5 -1 -20 -8 -35 -16z"/>
<path d="M1360 4445 c-19 -22 -2 -40 20 -20 24 22 55 16 55 -10 0 -13 -8 -21
-22 -23 -13 -2 -23 -10 -23 -17 0 -7 10 -15 23 -17 16 -2 22 -10 22 -28 0 -31
-29 -39 -56 -14 -22 20 -38 11 -23 -14 13 -21 65 -27 94 -12 22 12 28 58 9 77
-8 8 -8 17 0 32 19 35 -2 61 -48 61 -22 0 -44 -6 -51 -15z"/>
<path d="M1527 4447 c-20 -14 -32 -74 -23 -111 9 -37 33 -56 71 -56 44 0 65
30 65 90 0 60 -21 90 -64 90 -18 0 -40 -6 -49 -13z m72 -21 c7 -8 11 -30 9
-48 l-3 -33 -27 40 c-16 22 -28 43 -28 47 0 14 37 9 49 -6z m-35 -66 c14 -22
26 -44 26 -50 0 -18 -39 -11 -50 9 -9 18 -14 81 -6 81 2 0 15 -18 30 -40z"/>
<path d="M3850 4445 c-10 -12 -10 -19 -2 -27 8 -8 13 -7 18 5 7 20 37 22 52 5
15 -19 -2 -51 -47 -90 -57 -49 -53 -58 24 -58 37 0 65 4 65 10 0 6 -21 10 -47
10 l-47 0 42 43 c43 44 54 81 30 105 -17 17 -73 15 -88 -3z"/>
<path d="M3988 4418 c-6 -48 5 -69 24 -50 20 20 48 14 60 -13 19 -43 -32 -76
-62 -40 -16 19 -30 19 -30 0 0 -18 31 -35 64 -35 33 0 56 25 56 60 0 39 -26
63 -62 58 -25 -4 -29 -2 -26 16 2 17 11 22 46 24 61 5 52 22 -12 22 l-54 0 -4
-42z"/>
<path d="M4330 4445 c-10 -12 -10 -19 -2 -27 8 -8 13 -7 18 5 7 20 37 22 52 5
15 -19 -2 -51 -47 -90 -57 -49 -53 -58 24 -58 37 0 65 4 65 10 0 6 -21 10 -47
10 l-47 0 42 43 c43 44 54 81 30 105 -17 17 -73 15 -88 -3z"/>
<path d="M4498 4405 c-24 -31 -43 -61 -43 -68 0 -7 17 -13 43 -15 34 -3 42 -7
42 -23 0 -10 7 -19 15 -19 8 0 15 9 15 20 0 11 7 20 15 20 8 0 15 7 15 15 0 8
-7 15 -15 15 -12 0 -15 13 -15 55 0 72 -16 72 -72 0z m39 -52 c-3 -2 -15 -3
-27 -1 l-22 3 24 30 23 30 3 -29 c2 -15 1 -30 -1 -33z"/>
<path d="M6316 4444 c-22 -22 -9 -40 14 -19 24 22 54 16 58 -12 2 -15 -12 -36
-47 -69 -28 -27 -51 -52 -51 -56 0 -4 29 -8 65 -8 37 0 65 4 65 10 0 6 -18 10
-40 10 -47 0 -49 5 -15 32 25 19 55 67 55 87 0 36 -75 55 -104 25z"/>
<path d="M6464 4435 c-9 -14 -17 -43 -17 -65 0 -56 25 -90 67 -90 47 0 70 29
70 90 0 61 -23 90 -70 90 -25 0 -38 -7 -50 -25z m80 -11 c9 -8 16 -32 16 -52
0 -20 -4 -32 -8 -26 -32 37 -60 83 -55 88 11 11 31 7 47 -10z m-13 -97 c8 -13
6 -19 -7 -24 -24 -9 -54 31 -54 71 l1 31 25 -30 c14 -16 29 -38 35 -48z"/>
<path d="M6832 4441 c-33 -17 -34 -31 0 -31 16 0 18 -9 18 -65 0 -51 3 -65 15
-65 12 0 15 17 15 90 0 50 -3 90 -7 89 -5 -1 -23 -9 -41 -18z"/>
<path d="M6935 4444 c-10 -11 -15 -29 -13 -53 2 -28 9 -39 31 -49 28 -14 34
-26 17 -37 -15 -9 -12 -25 4 -25 20 0 66 83 66 118 0 53 -67 83 -105 46z m70
-20 c19 -20 16 -43 -7 -58 -21 -13 -51 2 -56 26 -3 16 23 48 38 48 5 0 16 -7
25 -16z"/>
<path d="M8822 4441 c-33 -17 -34 -31 0 -31 16 0 18 -9 18 -65 0 -51 3 -65 15
-65 12 0 15 17 15 90 0 50 -3 90 -7 89 -5 -1 -23 -9 -41 -18z"/>
<path d="M8916 4438 c-9 -36 -7 -78 4 -78 6 0 19 5 29 12 25 15 51 -4 51 -38
0 -32 -45 -45 -64 -19 -8 11 -18 15 -25 11 -9 -6 -8 -13 5 -27 22 -24 76 -25
97 -1 37 41 9 102 -46 102 -20 0 -27 5 -27 20 0 17 7 20 40 20 22 0 40 5 40
10 0 6 -22 10 -49 10 -42 0 -49 -3 -55 -22z"/>
<path d="M9302 4441 c-33 -17 -34 -31 0 -31 16 0 18 -9 18 -65 0 -51 3 -65 15
-65 12 0 15 17 15 90 0 50 -3 90 -7 89 -5 -1 -23 -9 -41 -18z"/>
<path d="M9428 4405 c-24 -31 -43 -61 -43 -68 0 -7 17 -13 43 -15 34 -3 42 -7
42 -23 0 -10 7 -19 15 -19 8 0 15 9 15 20 0 11 7 20 15 20 8 0 15 7 15 15 0 8
-7 15 -15 15 -12 0 -15 13 -15 55 0 72 -16 72 -72 0z m39 -52 c-3 -2 -15 -3
-27 -1 l-22 3 24 30 23 30 3 -29 c2 -15 1 -30 -1 -33z"/>
<path d="M10308 4443 c-35 -18 -36 -33 -3 -33 24 0 25 -2 25 -65 0 -37 4 -65
10 -65 6 0 10 37 10 90 0 50 -3 90 -7 89 -5 -1 -20 -8 -35 -16z"/>
<path d="M10406 4444 c-22 -22 -9 -40 14 -19 24 22 54 16 58 -12 2 -15 -12
-36 -47 -69 -28 -27 -51 -52 -51 -56 0 -4 29 -8 65 -8 37 0 65 4 65 10 0 6
-18 10 -40 10 -47 0 -49 5 -15 32 25 19 55 67 55 87 0 36 -75 55 -104 25z"/>
<path d="M10812 4441 c-33 -17 -34 -31 0 -31 16 0 18 -9 18 -65 0 -51 3 -65
15 -65 12 0 15 17 15 90 0 50 -3 90 -7 89 -5 -1 -23 -9 -41 -18z"/>
<path d="M10918 4443 c-35 -18 -36 -33 -3 -33 24 0 25 -2 25 -65 0 -37 4 -65
10 -65 6 0 10 37 10 90 0 50 -3 90 -7 89 -5 -1 -20 -8 -35 -16z"/>
<path d="M12320 4440 c-6 -12 -8 -29 -5 -40 3 -10 -1 -29 -9 -42 -24 -37 -2
-72 48 -76 60 -5 99 44 62 81 -8 8 -12 24 -9 40 3 15 0 34 -7 42 -19 22 -67
19 -80 -5z m64 -16 c8 -21 -1 -34 -25 -34 -12 0 -19 7 -19 18 0 34 33 45 44
16z m14 -91 c3 -17 -3 -24 -23 -29 -32 -8 -59 14 -49 40 10 27 68 18 72 -11z"/>
<path d="M12780 4450 c0 -5 20 -10 45 -10 25 0 45 -5 45 -10 0 -6 -16 -42 -35
-80 -31 -61 -33 -70 -17 -70 13 0 28 23 55 83 20 45 37 85 37 90 0 4 -29 7
-65 7 -37 0 -65 -4 -65 -10z"/>
<path d="M13311 4434 c-26 -32 -28 -100 -5 -132 23 -34 83 -27 104 11 13 24
13 30 -1 55 -12 22 -22 27 -52 27 -39 0 -48 14 -22 35 9 7 26 9 47 5 29 -7 31
-6 19 9 -21 25 -66 20 -90 -10z m67 -66 c17 -17 15 -43 -4 -59 -31 -26 -70 25
-44 56 15 18 32 19 48 3z"/>
<path d="M16264 4435 c-9 -14 -17 -43 -17 -65 0 -56 25 -90 67 -90 47 0 70 29
70 90 0 61 -23 90 -70 90 -25 0 -38 -7 -50 -25z m80 -11 c9 -8 16 -32 16 -52
0 -20 -4 -32 -8 -26 -32 37 -60 83 -55 88 11 11 31 7 47 -10z m-13 -97 c8 -13
6 -19 -7 -24 -24 -9 -54 31 -54 71 l1 31 25 -30 c14 -16 29 -38 35 -48z"/>
<path d="M759 4206 c-2 -2 -3 -137 -1 -300 l3 -296 7904 0 7905 0 0 300 0 300
-7903 0 c-4347 0 -7906 -2 -7908 -4z m481 -301 l0 -275 -230 0 -230 0 0 275 0
275 230 0 230 0 0 -275z m510 245 c0 -16 5 -30 10 -30 6 0 10 14 10 30 l0 30
235 0 235 0 0 -30 c0 -16 5 -30 10 -30 6 0 10 14 10 30 l0 30 230 0 230 0 0
-31 c0 -38 24 -35 28 4 l3 27 240 0 239 0 0 -30 c0 -16 5 -30 10 -30 6 0 10
14 10 30 l0 30 235 0 235 0 0 -30 c0 -16 5 -30 10 -30 6 0 10 14 10 30 l0 30
230 0 230 0 0 -275 0 -275 -230 0 -230 0 0 35 c0 19 -4 35 -10 35 -5 0 -10
-16 -10 -35 l0 -35 -235 0 -235 0 0 35 c0 19 -4 35 -10 35 -5 0 -10 -16 -10
-35 l0 -35 -239 0 -240 0 -3 33 c-2 17 -7 32 -13 32 -5 0 -11 -15 -13 -32 l-3
-33 -230 0 -229 0 0 35 c0 19 -4 35 -10 35 -5 0 -10 -16 -10 -35 l0 -35 -235
0 -235 0 0 35 c0 19 -4 35 -10 35 -5 0 -10 -16 -10 -35 l0 -35 -240 0 -240 0
0 275 0 275 240 0 240 0 0 -30z m2960 0 c0 -16 5 -30 10 -30 6 0 10 14 10 30
l0 30 235 0 235 0 0 -30 c0 -16 5 -30 10 -30 6 0 10 14 10 30 l0 30 230 0 230
0 0 -30 c0 -16 5 -30 10 -30 6 0 10 14 10 30 l0 30 245 0 245 0 0 -30 c0 -16
5 -30 10 -30 6 0 10 14 10 30 l0 30 235 0 235 0 0 -275 0 -275 -235 0 -235 0
0 35 c0 19 -4 35 -10 35 -5 0 -10 -16 -10 -35 l0 -35 -242 2 -243 3 -3 33 c-4
39 -22 33 -22 -9 l0 -29 -230 0 -230 0 0 35 c0 19 -4 35 -10 35 -5 0 -10 -16
-10 -35 l0 -35 -235 0 -235 0 0 35 c0 19 -4 35 -10 35 -5 0 -10 -16 -10 -35
l0 -35 -242 2 -243 3 -3 273 -2 272 245 0 245 0 0 -30z m2450 0 c0 -16 5 -30
10 -30 6 0 10 14 10 30 l0 30 245 0 245 0 0 -30 c0 -16 5 -30 10 -30 6 0 10
14 10 30 l0 30 235 0 235 0 0 -30 c0 -16 5 -30 10 -30 6 0 10 14 10 30 l0 30
239 0 240 0 3 -27 c4 -39 28 -42 28 -4 l0 31 230 0 230 0 0 -275 0 -275 -229
0 -230 0 -3 33 c-2 17 -7 32 -13 32 -5 0 -11 -15 -13 -32 l-3 -33 -240 0 -239
0 0 29 c0 17 -4 33 -10 36 -6 4 -10 -8 -10 -29 l0 -36 -235 0 -235 0 0 35 c0
19 -4 35 -10 35 -5 0 -10 -16 -10 -35 l0 -35 -242 2 -243 3 -3 33 c-4 39 -22
33 -22 -9 l0 -29 -230 0 -230 0 0 275 0 275 230 0 230 0 0 -30z m2480 0 c0
-16 5 -30 10 -30 6 0 10 14 10 30 l0 30 240 0 240 0 0 -30 c0 -20 5 -30 15
-30 10 0 15 10 15 30 l0 30 230 0 230 0 0 -275 0 -275 -229 0 -230 0 -3 33
c-2 17 -7 32 -13 32 -5 0 -11 -15 -13 -32 l-3 -33 -240 0 -239 0 0 29 c0 17
-4 33 -10 36 -6 4 -10 -8 -10 -29 l0 -36 -235 0 -235 0 0 275 0 275 235 0 235
0 0 -30z m1480 0 c0 -16 5 -30 10 -30 6 0 10 14 10 30 l0 30 240 0 240 0 0
-30 c0 -20 5 -30 15 -30 10 0 15 10 15 30 l0 30 230 0 230 0 0 -30 c0 -16 5
-30 10 -30 6 0 10 14 10 30 l0 30 235 0 235 0 0 -275 0 -275 -235 0 -235 0 0
35 c0 19 -4 35 -10 35 -5 0 -10 -16 -10 -35 l0 -35 -229 0 -230 0 -3 33 c-2
17 -7 32 -13 32 -5 0 -11 -15 -13 -32 l-3 -33 -240 0 -239 0 0 29 c0 17 -4 33
-10 36 -6 4 -10 -8 -10 -29 l0 -36 -235 0 -235 0 0 275 0 275 235 0 235 0 0
-30z m1980 -245 l0 -275 -240 0 -240 0 0 275 0 275 240 0 240 0 0 -275z m490
245 c0 -16 5 -30 10 -30 6 0 10 14 10 30 l0 30 235 0 235 0 0 -30 c0 -16 5
-30 10 -30 6 0 10 14 10 30 l0 30 240 0 240 0 0 -30 c0 -20 5 -30 15 -30 10 0
15 10 15 30 l0 30 230 0 230 0 0 -30 c0 -16 5 -30 10 -30 6 0 10 14 10 30 l0
30 235 0 235 0 0 -30 c0 -16 5 -30 10 -30 6 0 10 14 10 30 l0 30 240 0 240 0
0 -30 c0 -20 5 -30 15 -30 10 0 15 10 15 30 l0 30 230 0 230 0 0 -275 0 -275
-229 0 -230 0 -3 33 c-2 17 -7 32 -13 32 -5 0 -11 -15 -13 -32 l-3 -33 -240 0
-239 0 0 29 c0 42 -18 48 -22 9 l-3 -33 -232 -3 -233 -2 0 35 c0 19 -4 35 -10
35 -5 0 -10 -16 -10 -35 l0 -35 -229 0 -230 0 -3 33 c-2 17 -7 32 -13 32 -5 0
-11 -15 -13 -32 l-3 -33 -240 0 -239 0 0 29 c0 42 -18 48 -22 9 l-3 -33 -232
-3 -233 -2 0 35 c0 19 -4 35 -10 35 -5 0 -10 -16 -10 -35 l0 -35 -230 0 -230
0 0 275 0 275 230 0 230 0 0 -30z"/>
<path d="M820 3860 l0 -110 30 0 c17 0 30 5 30 10 0 6 -9 10 -20 10 -18 0 -20
7 -20 86 0 77 2 86 20 91 30 8 24 23 -10 23 l-30 0 0 -110z"/>
<path d="M922 3951 c-33 -17 -34 -31 0 -31 16 0 18 -9 18 -65 0 -51 3 -65 15
-65 12 0 15 17 15 90 0 50 -3 90 -7 89 -5 -1 -23 -9 -41 -18z"/>
<path d="M1020 3955 c-10 -12 -10 -19 -2 -27 8 -8 13 -7 18 5 7 20 37 22 52 5
15 -19 -2 -51 -47 -90 -57 -49 -53 -58 24 -58 37 0 65 4 65 10 0 6 -21 10 -47
10 l-47 0 42 43 c43 44 54 81 30 105 -17 17 -73 15 -88 -3z"/>
<path d="M1140 3961 c0 -5 9 -11 20 -14 18 -5 20 -14 20 -91 0 -79 -2 -86 -20
-86 -11 0 -20 -4 -20 -10 0 -5 14 -10 30 -10 l30 0 0 110 0 110 -30 0 c-16 0
-30 -4 -30 -9z"/>
<path d="M2170 3965 c0 -8 7 -15 15 -15 8 0 15 7 15 15 0 8 -7 15 -15 15 -8 0
-15 -7 -15 -15z"/>
<path d="M2680 3860 l0 -110 30 0 c17 0 30 5 30 10 0 6 -7 10 -15 10 -12 0
-15 17 -15 90 0 73 3 90 15 90 8 0 15 5 15 10 0 6 -13 10 -30 10 l-30 0 0
-110z"/>
<path d="M2788 3953 c-35 -18 -36 -33 -3 -33 24 0 25 -2 25 -65 0 -37 4 -65
10 -65 6 0 10 37 10 90 0 50 -3 90 -7 89 -5 -1 -20 -8 -35 -16z"/>
<path d="M2897 3957 c-20 -14 -32 -74 -23 -111 9 -37 33 -56 71 -56 44 0 65
30 65 90 0 60 -21 90 -64 90 -18 0 -40 -6 -49 -13z m72 -21 c7 -8 11 -30 9
-48 l-3 -33 -27 40 c-16 22 -28 43 -28 47 0 14 37 9 49 -6z m-35 -66 c14 -22
26 -44 26 -50 0 -18 -39 -11 -50 9 -9 18 -14 81 -6 81 2 0 15 -18 30 -40z"/>
<path d="M3106 3948 c-9 -36 -7 -78 4 -78 6 0 19 5 29 12 25 15 51 -4 51 -38
0 -32 -45 -45 -64 -19 -8 11 -18 15 -25 11 -9 -6 -8 -13 5 -27 22 -24 76 -25
97 -1 37 41 9 102 -46 102 -20 0 -27 5 -27 20 0 17 7 20 40 20 22 0 40 5 40
10 0 6 -22 10 -49 10 -42 0 -49 -3 -55 -22z"/>
<path d="M3240 3961 c0 -5 9 -11 20 -14 18 -5 20 -14 20 -91 0 -79 -2 -86 -20
-86 -11 0 -20 -4 -20 -10 0 -5 14 -10 30 -10 l30 0 0 110 0 110 -30 0 c-16 0
-30 -4 -30 -9z"/>
<path d="M2281 3921 c-8 -5 -20 -7 -28 -4 -10 4 -13 -10 -13 -61 0 -37 4 -66
10 -66 6 0 10 19 10 43 0 51 11 70 36 65 15 -2 20 -14 22 -56 3 -60 22 -72 22
-14 0 46 20 78 44 69 12 -5 16 -19 16 -57 0 -38 4 -50 15 -50 11 0 15 12 15
50 0 57 -28 97 -58 84 -21 -9 -42 -9 -62 -1 -8 4 -21 3 -29 -2z"/>
<path d="M2501 3921 c-8 -5 -20 -7 -28 -4 -10 4 -13 -10 -13 -61 0 -37 4 -66
10 -66 6 0 10 19 10 43 0 51 11 70 36 65 15 -2 20 -14 22 -56 3 -60 22 -72 22
-14 0 46 20 78 44 69 12 -5 16 -19 16 -57 0 -38 4 -50 15 -50 11 0 15 12 15
50 0 57 -28 97 -58 84 -21 -9 -42 -9 -62 -1 -8 4 -21 3 -29 -2z"/>
<path d="M3041 3916 c-9 -10 -9 -16 -1 -21 17 -10 37 12 24 25 -8 8 -15 6 -23
-4z"/>
<path d="M2164 3904 c3 -9 6 -38 6 -65 0 -37 4 -49 15 -49 12 0 15 14 15 65 0
59 -2 65 -21 65 -15 0 -19 -4 -15 -16z"/>
<path d="M3037 3814 c-9 -10 2 -24 19 -24 8 0 14 7 14 15 0 15 -21 21 -33 9z"/>
<path d="M5516 3954 c-22 -22 -9 -40 14 -19 24 22 54 16 58 -12 2 -15 -12 -36
-47 -69 -28 -27 -51 -52 -51 -56 0 -4 29 -8 65 -8 37 0 65 4 65 10 0 6 -18 10
-40 10 -47 0 -49 5 -15 32 25 19 55 67 55 87 0 36 -75 55 -104 25z"/>
<path d="M5335 3920 c-11 -4 -26 -5 -32 -3 -10 4 -13 -12 -13 -61 0 -37 4 -66
10 -66 6 0 10 18 10 39 0 37 15 64 41 73 7 2 10 9 8 15 -2 6 -12 7 -24 3z"/>
<path d="M5393 3920 c-25 -10 -30 -42 -10 -57 6 -6 24 -13 40 -17 15 -3 27
-11 27 -17 0 -17 -32 -23 -52 -10 -25 15 -35 7 -18 -14 16 -19 74 -20 90 0 18
22 2 54 -32 63 -47 12 -51 37 -4 28 42 -8 50 9 10 24 -14 6 -26 10 -27 9 -1 0
-12 -4 -24 -9z"/>
<path d="M8012 3951 c-33 -17 -34 -31 0 -31 16 0 18 -9 18 -65 0 -51 3 -65 15
-65 12 0 15 17 15 90 0 50 -3 90 -7 89 -5 -1 -23 -9 -41 -18z"/>
<path d="M7825 3920 c-11 -4 -26 -5 -32 -3 -10 4 -13 -12 -13 -61 0 -37 4 -66
10 -66 6 0 10 18 10 39 0 37 15 64 41 73 7 2 10 9 8 15 -2 6 -12 7 -24 3z"/>
<path d="M7883 3920 c-25 -10 -30 -42 -10 -57 6 -6 24 -13 40 -17 15 -3 27
-11 27 -17 0 -17 -32 -23 -52 -10 -25 15 -35 7 -18 -14 16 -19 74 -20 90 0 18
22 2 54 -32 63 -47 12 -51 37 -4 28 42 -8 50 9 10 24 -14 6 -26 10 -27 9 -1 0
-12 -4 -24 -9z"/>
<path d="M9547 3953 c-6 -16 -16 -31 -20 -34 -5 -4 -4 -10 2 -13 6 -4 11 -32
11 -62 0 -41 4 -54 15 -54 11 0 15 12 15 51 0 38 5 55 18 65 16 13 16 13 0 14
-22 0 -24 28 -3 36 22 9 18 24 -5 24 -13 0 -25 -11 -33 -27z"/>
<path d="M10130 3955 c-19 -22 -2 -40 20 -20 24 22 55 16 55 -10 0 -13 -8 -21
-22 -23 -13 -2 -23 -10 -23 -17 0 -7 10 -15 23 -17 16 -2 22 -10 22 -28 0 -31
-29 -39 -56 -14 -22 20 -38 11 -23 -14 13 -21 65 -27 94 -12 22 12 28 58 9 77
-8 8 -8 17 0 32 19 35 -2 61 -48 61 -22 0 -44 -6 -51 -15z"/>
<path d="M10050 3945 c0 -9 -7 -18 -16 -22 -15 -6 -15 -7 -1 -18 10 -7 17 -30
19 -61 3 -42 6 -49 26 -52 25 -4 30 13 7 22 -22 8 -20 82 3 91 16 6 16 7 0 16
-10 6 -18 17 -18 24 0 8 -4 15 -10 15 -5 0 -10 -7 -10 -15z"/>
<path d="M9805 3921 c-11 -5 -26 -6 -32 -4 -10 4 -13 -12 -13 -61 0 -51 3 -66
14 -66 11 0 16 15 18 53 3 48 5 52 28 52 23 0 25 -4 28 -52 4 -73 22 -67 22 7
0 48 -4 61 -19 70 -11 5 -21 10 -23 9 -2 0 -12 -4 -23 -8z"/>
<path d="M9932 3920 c-41 -17 -50 -89 -14 -117 22 -18 67 -16 83 3 11 13 8 15
-26 12 -35 -3 -40 0 -49 24 -14 40 7 61 53 54 l36 -6 -24 20 c-26 22 -27 22
-59 10z"/>
<path d="M9622 3858 l3 -63 53 -2 52 -1 0 64 c0 49 -3 64 -14 64 -11 0 -16
-14 -18 -46 -2 -32 -9 -51 -21 -58 -24 -15 -37 6 -37 62 0 23 -5 42 -10 42 -7
0 -10 -24 -8 -62z"/>
<path d="M11130 3965 c0 -8 7 -15 15 -15 8 0 15 7 15 15 0 8 -7 15 -15 15 -8
0 -15 -7 -15 -15z"/>
<path d="M11640 3860 l0 -110 30 0 c17 0 30 5 30 10 0 6 -7 10 -15 10 -12 0
-15 17 -15 90 0 73 3 90 15 90 8 0 15 5 15 10 0 6 -13 10 -30 10 l-30 0 0
-110z"/>
<path d="M11763 3915 c-56 -72 -56 -85 2 -85 38 0 45 -3 45 -20 0 -11 5 -20
10 -20 6 0 10 9 10 20 0 11 7 20 15 20 8 0 15 7 15 15 0 8 -7 15 -15 15 -12 0
-15 13 -15 55 0 71 -13 71 -67 0z m47 -20 c0 -32 -2 -35 -31 -35 l-30 0 27 35
c14 19 28 35 30 35 2 0 4 -16 4 -35z"/>
<path d="M11962 3951 c-33 -17 -34 -31 0 -31 16 0 18 -9 18 -65 0 -51 3 -65
15 -65 12 0 15 17 15 90 0 50 -3 90 -7 89 -5 -1 -23 -9 -41 -18z"/>
<path d="M12040 3960 c0 -5 7 -10 15 -10 12 0 15 -17 15 -90 0 -73 -3 -90 -15
-90 -8 0 -15 -4 -15 -10 0 -5 11 -10 25 -10 l25 0 0 110 0 110 -25 0 c-14 0
-25 -4 -25 -10z"/>
<path d="M11241 3921 c-8 -5 -20 -7 -28 -4 -10 4 -13 -10 -13 -61 0 -37 4 -66
10 -66 6 0 10 19 10 43 0 51 11 70 36 65 15 -2 20 -14 22 -56 3 -60 22 -72 22
-14 0 46 20 78 44 69 12 -5 16 -19 16 -57 0 -38 4 -50 15 -50 11 0 15 12 15
50 0 57 -28 97 -58 84 -21 -9 -42 -9 -62 -1 -8 4 -21 3 -29 -2z"/>
<path d="M11461 3921 c-8 -5 -20 -7 -28 -4 -10 4 -13 -10 -13 -61 0 -37 4 -66
10 -66 6 0 10 19 10 43 0 51 11 70 36 65 15 -2 20 -14 22 -56 3 -60 22 -72 22
-14 0 46 20 78 44 69 12 -5 16 -19 16 -57 0 -38 4 -50 15 -50 11 0 15 12 15
50 0 57 -28 97 -58 84 -21 -9 -42 -9 -62 -1 -8 4 -21 3 -29 -2z"/>
<path d="M11886 3923 c-12 -12 -6 -33 9 -33 8 0 15 6 15 14 0 17 -14 28 -24
19z"/>
<path d="M11124 3904 c3 -9 6 -38 6 -65 0 -37 4 -49 15 -49 12 0 15 14 15 65
0 59 -2 65 -21 65 -15 0 -19 -4 -15 -16z"/>
<path d="M11880 3805 c0 -10 7 -15 18 -13 21 4 19 22 -2 26 -10 2 -16 -3 -16
-13z"/>
<path d="M12680 3860 l0 -110 30 0 c17 0 30 5 30 10 0 6 -9 10 -20 10 -18 0
-20 7 -20 86 0 77 2 86 20 91 30 8 24 23 -10 23 l-30 0 0 -110z"/>
<path d="M12778 3953 c-35 -18 -36 -33 -3 -33 24 0 25 -2 25 -65 0 -37 4 -65
10 -65 6 0 10 37 10 90 0 50 -3 90 -7 89 -5 -1 -20 -8 -35 -16z"/>
<path d="M12888 3953 c-35 -18 -36 -33 -3 -33 24 0 25 -2 25 -65 0 -37 4 -65
10 -65 6 0 10 37 10 90 0 50 -3 90 -7 89 -5 -1 -20 -8 -35 -16z"/>
<path d="M12960 3961 c0 -5 9 -11 20 -14 18 -5 20 -14 20 -91 0 -79 -2 -86
-20 -86 -11 0 -20 -4 -20 -10 0 -5 14 -10 30 -10 l30 0 0 110 0 110 -30 0
c-16 0 -30 -4 -30 -9z"/>
<path d="M15080 3940 c0 -28 -2 -30 -20 -20 -40 22 -86 -29 -73 -81 10 -41 23
-49 74 -47 l49 2 0 88 c0 72 -3 88 -15 88 -10 0 -15 -10 -15 -30z m-2 -76 c6
-56 -50 -73 -64 -19 -8 31 12 57 40 53 15 -2 22 -11 24 -34z"/>
<path d="M14437 3909 c-50 -39 -27 -119 34 -119 40 0 63 23 63 64 0 61 -52 91
-97 55z m63 -23 c28 -34 -11 -94 -44 -67 -16 13 -22 62 -9 74 11 12 40 8 53
-7z"/>
<path d="M14611 3921 c-8 -5 -20 -7 -28 -4 -10 4 -13 -13 -13 -81 0 -51 4 -86
10 -86 6 0 10 10 10 23 0 21 4 23 30 19 77 -11 100 110 25 132 -11 3 -26 2
-34 -3z m47 -57 c6 -56 -50 -73 -64 -19 -8 31 12 57 40 53 15 -2 22 -11 24
-34z"/>
<path d="M14745 3918 c-11 -6 -23 -16 -27 -22 -14 -21 -8 -73 10 -89 22 -20
65 -22 81 -4 15 19 3 28 -19 15 -27 -17 -52 7 -48 46 3 29 5 31 41 29 40 -3
49 10 18 27 -24 12 -31 12 -56 -2z"/>
<path d="M14867 3909 c-50 -39 -27 -119 34 -119 40 0 63 23 63 64 0 61 -52 91
-97 55z m63 -23 c28 -34 -11 -94 -44 -67 -16 13 -22 62 -9 74 11 12 40 8 53
-7z"/>
<path d="M15172 3920 c-42 -17 -48 -97 -9 -122 21 -13 64 -9 78 8 12 15 10 16
-19 9 -21 -4 -38 -2 -47 5 -26 22 -16 30 35 30 41 0 50 3 50 18 0 23 -10 37
-37 51 -25 13 -21 13 -51 1z m56 -37 c2 -9 -8 -13 -32 -13 -28 0 -34 3 -29 16
7 18 54 16 61 -3z"/>
<path d="M16660 3860 l0 -90 53 0 c66 0 94 23 81 67 -4 15 -7 42 -5 60 3 39
-19 53 -83 53 l-46 0 0 -90z m84 64 c25 -10 19 -43 -8 -50 -32 -8 -46 2 -46
32 0 25 20 31 54 18z m22 -89 c9 -23 -16 -46 -45 -43 -20 2 -27 9 -29 31 -3
25 -1 27 33 27 23 0 38 -6 41 -15z"/>
<path d="M16910 3940 c0 -5 14 -10 30 -10 l30 0 0 -80 c0 -64 3 -80 15 -80 12
0 15 16 15 80 l0 80 30 0 c17 0 30 5 30 10 0 6 -32 10 -75 10 -43 0 -75 -4
-75 -10z"/>
<path d="M17231 3901 c-8 -5 -20 -7 -28 -4 -10 4 -13 -13 -13 -81 0 -51 4 -86
10 -86 6 0 10 10 10 23 0 21 4 23 30 19 77 -11 100 110 25 132 -11 3 -26 2
-34 -3z m47 -57 c6 -56 -50 -73 -64 -19 -8 31 12 57 40 53 15 -2 22 -11 24
-34z"/>
<path d="M17357 3889 c-33 -25 -37 -77 -9 -102 24 -22 76 -22 93 0 13 15 11
16 -20 10 -33 -7 -61 5 -61 24 0 5 23 9 51 9 48 0 50 1 44 23 -16 50 -60 67
-98 36z m67 -24 c4 -12 -3 -15 -29 -15 -33 0 -43 8 -28 23 12 13 51 7 57 -8z"/>
<path d="M17060 3890 c0 -5 9 -34 21 -64 21 -57 19 -76 -7 -76 -8 0 -14 -5
-14 -11 0 -6 12 -9 27 -7 23 3 29 12 54 86 21 62 24 82 14 82 -7 0 -20 -19
-28 -42 -10 -28 -17 -38 -21 -28 -3 8 -10 27 -15 43 -10 26 -31 38 -31 17z"/>
<path d="M16820 3840 c0 -5 18 -10 40 -10 22 0 40 5 40 10 0 6 -18 10 -40 10
-22 0 -40 -4 -40 -10z"/>
<path d="M898 2949 c-20 -11 -24 -39 -6 -39 6 0 19 7 29 16 22 20 59 10 59
-17 0 -12 -10 -23 -25 -29 -32 -12 -32 -28 0 -36 32 -8 43 -43 19 -61 -25 -18
-40 -16 -61 6 -12 13 -23 17 -32 12 -11 -7 -9 -13 8 -30 25 -25 77 -28 109 -5
26 18 30 65 7 84 -11 9 -13 16 -5 24 14 14 13 59 -2 74 -15 15 -76 15 -100 1z"/>
<path d="M1083 2941 c-39 -19 -42 -31 -8 -31 25 0 25 -1 25 -80 0 -64 3 -80
15 -80 12 0 15 18 15 105 0 58 -3 104 -7 104 -5 -1 -23 -9 -40 -18z"/>
<path d="M10310 2945 c-7 -8 -21 -15 -31 -15 -30 0 -22 -18 9 -22 27 -3 27 -4
30 -80 2 -60 6 -78 17 -78 12 0 15 20 15 105 0 83 -3 105 -14 105 -7 0 -19 -7
-26 -15z"/>
<path d="M10406 2938 c-21 -30 1 -45 27 -17 22 23 40 24 58 3 18 -22 -9 -69
-67 -114 -64 -51 -59 -60 37 -60 60 0 80 3 77 13 -3 6 -26 14 -53 17 l-49 5
30 25 c87 74 84 150 -6 150 -29 0 -43 -6 -54 -22z"/>
<path d="M10820 2945 c-7 -8 -21 -15 -31 -15 -30 0 -22 -18 9 -22 27 -3 27 -4
30 -80 2 -60 6 -78 17 -78 12 0 15 20 15 105 0 83 -3 105 -14 105 -7 0 -19 -7
-26 -15z"/>
<path d="M10940 2945 c-7 -8 -21 -15 -31 -15 -30 0 -22 -18 9 -22 27 -3 27 -4
30 -80 2 -60 6 -78 17 -78 12 0 15 20 15 105 0 83 -3 105 -14 105 -7 0 -19 -7
-26 -15z"/>
<path d="M12770 2945 c0 -12 13 -15 55 -15 30 0 55 -2 55 -5 0 -3 -18 -41 -40
-85 -22 -44 -40 -82 -40 -85 0 -3 8 -5 18 -5 12 1 30 29 60 93 23 51 42 98 42
105 0 8 -22 12 -75 12 -60 0 -75 -3 -75 -15z"/>
<path d="M13309 2934 c-31 -33 -34 -130 -5 -163 25 -27 79 -28 106 -1 42 42
11 120 -48 120 -15 0 -34 -6 -40 -12 -10 -10 -10 -6 -2 19 14 38 32 46 65 31
30 -13 43 -5 25 17 -20 24 -73 19 -101 -11z m79 -86 c35 -35 -15 -99 -53 -68
-15 13 -21 61 -8 73 11 11 48 8 61 -5z"/>
<path d="M16261 2941 c-27 -27 -36 -84 -22 -132 13 -42 35 -59 76 -59 41 0 63
17 76 59 24 81 -11 151 -76 151 -21 0 -43 -8 -54 -19z m77 -18 c22 -20 39 -78
24 -87 -12 -7 -75 81 -67 94 9 14 20 12 43 -7z m2 -135 c0 -16 -23 -19 -44 -4
-24 15 -43 77 -31 97 6 9 75 -76 75 -93z"/>
<path d="M760 2300 l0 -355 7905 3 7905 2 0 353 0 352 -7905 0 -7905 0 0 -355z
m480 300 c0 -20 5 -30 15 -30 10 0 15 10 15 30 l0 30 240 0 240 0 0 -30 c0
-16 5 -30 10 -30 6 0 10 14 10 30 l0 30 235 0 235 0 0 -30 c0 -16 5 -30 10
-30 6 0 10 14 10 30 l0 30 230 0 230 0 0 -31 c0 -38 24 -35 28 4 l3 27 240 0
239 0 0 -30 c0 -16 5 -30 10 -30 6 0 10 14 10 30 l0 30 235 0 235 0 0 -30 c0
-16 5 -30 10 -30 6 0 10 14 10 30 l0 30 230 0 230 0 0 -30 c0 -16 5 -30 10
-30 6 0 10 14 10 30 l0 30 245 0 245 0 0 -30 c0 -16 5 -30 10 -30 6 0 10 14
10 30 l0 30 235 0 235 0 0 -30 c0 -16 5 -30 10 -30 6 0 10 14 10 30 l0 30 230
0 230 0 0 -30 c0 -16 5 -30 10 -30 6 0 10 14 10 30 l0 30 245 0 245 0 0 -30
c0 -16 5 -30 10 -30 6 0 10 14 10 30 l0 30 235 0 235 0 0 -30 c0 -16 5 -30 10
-30 6 0 10 14 10 30 l0 30 230 0 230 0 0 -30 c0 -16 5 -30 10 -30 6 0 10 14
10 30 l0 30 245 0 245 0 0 -30 c0 -16 5 -30 10 -30 6 0 10 14 10 30 l0 30 235
0 235 0 0 -30 c0 -16 5 -30 10 -30 6 0 10 14 10 30 l0 30 240 0 240 0 0 -30
c0 -20 5 -30 15 -30 10 0 15 10 15 30 l0 30 230 0 230 0 0 -30 c0 -16 5 -30
10 -30 6 0 10 14 10 30 l0 30 235 0 235 0 0 -30 c0 -16 5 -30 10 -30 6 0 10
14 10 30 l0 30 240 0 240 0 0 -30 c0 -20 5 -30 15 -30 10 0 15 10 15 30 l0 30
230 0 230 0 0 -330 0 -330 -229 0 -230 0 -3 33 c-2 17 -7 32 -13 32 -5 0 -11
-15 -13 -32 l-3 -33 -240 0 -239 0 0 29 c0 17 -4 33 -10 36 -6 4 -10 -8 -10
-29 l0 -36 -235 0 -235 0 0 36 c0 21 -4 33 -10 29 -5 -3 -10 -19 -10 -36 l0
-29 -229 0 -230 0 -3 33 c-2 17 -7 32 -13 32 -5 0 -11 -15 -13 -32 l-3 -33
-240 0 -239 0 0 29 c0 17 -4 33 -10 36 -6 4 -10 -8 -10 -29 l0 -36 -235 0
-235 0 0 36 c0 21 -4 33 -10 29 -5 -3 -10 -19 -10 -36 l0 -29 -245 0 -245 0 0
36 c0 21 -4 33 -10 29 -6 -3 -10 -19 -10 -36 l0 -29 -230 0 -230 0 0 29 c0 17
-4 33 -10 36 -6 4 -10 -8 -10 -29 l0 -36 -235 0 -235 0 0 36 c0 21 -4 33 -10
29 -5 -3 -10 -19 -10 -36 l0 -29 -245 0 -245 0 0 36 c0 21 -4 33 -10 29 -5 -3
-10 -19 -10 -36 l0 -29 -230 0 -230 0 0 29 c0 17 -5 33 -10 36 -6 4 -10 -8
-10 -29 l0 -36 -235 0 -235 0 0 36 c0 21 -4 33 -10 29 -5 -3 -10 -19 -10 -36
l0 -29 -245 0 -245 0 0 36 c0 21 -4 33 -10 29 -6 -3 -10 -19 -10 -36 l0 -29
-230 0 -230 0 0 29 c0 17 -4 33 -10 36 -6 4 -10 -8 -10 -29 l0 -36 -235 0
-235 0 0 36 c0 21 -4 33 -10 29 -5 -3 -10 -19 -10 -36 l0 -29 -239 0 -240 0
-3 33 c-2 17 -7 32 -13 32 -5 0 -11 -15 -13 -32 l-3 -33 -230 0 -229 0 0 29
c0 17 -4 33 -10 36 -6 4 -10 -8 -10 -29 l0 -36 -235 0 -235 0 0 36 c0 21 -4
33 -10 29 -5 -3 -10 -19 -10 -36 l0 -29 -239 0 -240 0 -3 33 c-2 17 -7 32 -13
32 -5 0 -11 -15 -13 -32 l-3 -33 -230 0 -229 0 0 330 0 330 230 0 230 0 0 -30z
m9880 0 c0 -16 5 -30 10 -30 6 0 10 14 10 30 l0 30 240 0 240 0 0 -30 c0 -20
5 -30 15 -30 10 0 15 10 15 30 l0 30 230 0 230 0 0 -30 c0 -16 5 -30 10 -30 6
0 10 14 10 30 l0 30 235 0 235 0 0 -30 c0 -16 5 -30 10 -30 6 0 10 14 10 30
l0 30 240 0 240 0 0 -330 0 -330 -240 0 -240 0 0 29 c0 17 -4 33 -10 36 -6 4
-10 -8 -10 -29 l0 -36 -235 0 -235 0 0 36 c0 21 -4 33 -10 29 -5 -3 -10 -19
-10 -36 l0 -29 -229 0 -230 0 -3 33 c-2 17 -7 32 -13 32 -5 0 -11 -15 -13 -32
l-3 -33 -240 0 -239 0 0 29 c0 17 -4 33 -10 36 -6 4 -10 -8 -10 -29 l0 -36
-235 0 -235 0 0 330 0 330 235 0 235 0 0 -30z m2470 0 c0 -16 5 -30 10 -30 6
0 10 14 10 30 l0 30 235 0 235 0 0 -30 c0 -16 5 -30 10 -30 6 0 10 14 10 30
l0 30 240 0 240 0 0 -30 c0 -20 5 -30 15 -30 10 0 15 10 15 30 l0 30 230 0
230 0 0 -30 c0 -16 5 -30 10 -30 6 0 10 14 10 30 l0 30 235 0 235 0 0 -30 c0
-16 5 -30 10 -30 6 0 10 14 10 30 l0 30 240 0 240 0 0 -30 c0 -20 5 -30 15
-30 10 0 15 10 15 30 l0 30 230 0 230 0 0 -330 0 -330 -229 0 -230 0 -3 33
c-2 17 -7 32 -13 32 -5 0 -11 -15 -13 -32 l-3 -33 -240 0 -239 0 0 29 c0 17
-4 33 -10 36 -6 4 -10 -8 -10 -29 l0 -36 -235 0 -235 0 0 36 c0 21 -4 33 -10
29 -5 -3 -10 -19 -10 -36 l0 -29 -229 0 -230 0 -3 33 c-2 17 -7 32 -13 32 -5
0 -11 -15 -13 -32 l-3 -33 -240 0 -239 0 0 29 c0 17 -4 33 -10 36 -6 4 -10 -8
-10 -29 l0 -36 -235 0 -235 0 0 36 c0 21 -4 33 -10 29 -5 -3 -10 -19 -10 -36
l0 -29 -230 0 -230 0 0 330 0 330 230 0 230 0 0 -30z"/>
<path d="M4992 2373 c2 -10 10 -18 18 -18 8 0 16 8 18 18 2 12 -3 17 -18 17
-15 0 -20 -5 -18 -17z"/>
<path d="M5590 2250 l0 -130 30 0 c20 0 30 5 30 15 0 8 -7 15 -15 15 -12 0
-15 18 -15 100 0 82 3 100 15 100 8 0 15 7 15 15 0 10 -10 15 -30 15 l-30 0 0
-130z"/>
<path d="M5694 2359 c-15 -17 -16 -22 -4 -29 10 -6 18 -3 28 11 15 22 45 25
61 5 16 -19 4 -43 -25 -50 -33 -9 -30 -22 6 -35 32 -11 40 -37 18 -59 -19 -19
-45 -14 -62 10 -12 17 -19 19 -28 10 -19 -19 18 -52 61 -52 44 0 57 8 70 42 8
22 6 31 -8 49 -16 20 -16 25 -5 37 19 18 18 47 -2 66 -23 23 -87 21 -110 -5z"/>
<path d="M5900 2365 c-7 -8 -21 -15 -31 -15 -30 0 -22 -18 9 -22 27 -3 27 -4
30 -80 2 -60 6 -78 17 -78 12 0 15 20 15 105 0 83 -3 105 -14 105 -7 0 -19 -7
-26 -15z"/>
<path d="M6090 2365 c-7 -8 -21 -15 -31 -15 -30 0 -22 -18 9 -22 27 -3 27 -4
30 -80 2 -60 6 -78 17 -78 12 0 15 20 15 105 0 83 -3 105 -14 105 -7 0 -19 -7
-26 -15z"/>
<path d="M6186 2358 c-21 -30 1 -45 27 -17 22 23 40 24 58 3 18 -22 -9 -69
-67 -114 -64 -51 -59 -60 37 -60 60 0 80 3 77 13 -3 6 -26 14 -53 17 l-49 5
30 25 c87 74 84 150 -6 150 -29 0 -43 -6 -54 -22z"/>
<path d="M6330 2369 c0 -6 9 -13 20 -16 18 -5 20 -14 20 -103 0 -89 -2 -98
-20 -103 -33 -8 -23 -27 15 -27 l35 0 0 130 0 130 -35 0 c-19 0 -35 -5 -35
-11z"/>
<path d="M4970 2315 c0 -8 5 -15 10 -15 6 0 10 -28 10 -65 0 -51 3 -65 15 -65
12 0 15 16 15 80 0 79 0 80 -25 80 -16 0 -25 -6 -25 -15z"/>
<path d="M5064 2316 c-10 -26 1 -139 14 -144 8 -2 12 9 12 37 0 60 15 93 43
89 20 -3 22 -9 25 -65 2 -47 7 -63 17 -63 11 0 15 13 15 53 0 55 12 77 41 77
22 0 29 -20 29 -81 0 -37 4 -49 15 -49 11 0 15 12 15 49 0 92 -26 124 -82 103
-22 -8 -35 -8 -48 0 -14 9 -25 9 -44 0 -16 -7 -26 -8 -26 -2 0 15 -20 12 -26
-4z"/>
<path d="M5324 2316 c-10 -26 1 -139 14 -144 8 -2 12 9 12 37 0 60 15 93 43
89 20 -3 22 -9 25 -65 2 -47 7 -63 17 -63 11 0 15 13 15 53 0 55 12 77 41 77
22 0 29 -20 29 -81 0 -37 4 -49 15 -49 11 0 15 12 15 49 0 92 -26 124 -82 103
-22 -8 -35 -8 -48 0 -14 9 -25 9 -44 0 -16 -7 -26 -8 -26 -2 0 15 -20 12 -26
-4z"/>
<path d="M5980 2310 c0 -15 5 -20 18 -18 9 2 17 10 17 18 0 8 -8 16 -17 18
-13 2 -18 -3 -18 -18z"/>
<path d="M5980 2190 c0 -15 5 -20 18 -18 9 2 17 10 17 18 0 8 -8 16 -17 18
-13 2 -18 -3 -18 -18z"/>
<path d="M11970 2346 c0 -34 -1 -34 -29 -23 -72 27 -123 -80 -65 -137 18 -19
65 -21 82 -4 9 9 12 9 12 0 0 -7 7 -12 15 -12 12 0 15 18 15 105 0 87 -3 105
-15 105 -10 0 -15 -10 -15 -34z m-10 -72 c13 -33 -7 -79 -35 -79 -30 0 -52 47
-37 79 16 36 59 36 72 0z"/>
<path d="M11754 2316 c-10 -26 1 -139 14 -144 7 -2 12 6 12 21 0 53 13 89 36
99 25 12 33 38 11 38 -7 0 -19 -6 -26 -12 -11 -10 -14 -10 -18 0 -6 16 -22 15
-29 -2z"/>
<path d="M15130 2346 c0 -34 -1 -34 -29 -23 -72 27 -123 -80 -65 -137 18 -19
65 -21 82 -4 9 9 12 9 12 0 0 -7 7 -12 15 -12 12 0 15 18 15 105 0 87 -3 105
-15 105 -10 0 -15 -10 -15 -34z m-10 -72 c13 -33 -7 -79 -35 -79 -30 0 -52 47
-37 79 16 36 59 36 72 0z"/>
<path d="M14365 2305 c-35 -34 -30 -101 9 -127 23 -16 75 -8 96 14 44 47 8
138 -55 138 -14 0 -37 -11 -50 -25z m85 -24 c16 -31 12 -59 -12 -75 -41 -29
-84 25 -58 73 14 27 56 28 70 2z"/>
<path d="M14520 2225 c0 -87 3 -105 15 -105 10 0 15 10 15 28 0 26 2 28 35 24
51 -6 75 19 75 75 0 65 -41 99 -90 73 -13 -7 -21 -7 -25 0 -18 28 -25 0 -25
-95z m98 63 c25 -25 5 -98 -28 -98 -18 0 -40 32 -40 59 0 30 16 51 40 51 9 0
21 -5 28 -12z"/>
<path d="M14725 2318 c-29 -16 -35 -28 -35 -74 0 -49 23 -74 66 -74 32 0 74
24 62 35 -4 4 -21 3 -37 -3 -39 -14 -63 7 -59 51 4 37 30 57 55 41 10 -6 24
-9 31 -6 10 3 9 8 -4 23 -19 21 -49 24 -79 7z"/>
<path d="M14865 2305 c-35 -34 -30 -101 9 -127 23 -16 75 -8 96 14 44 47 8
138 -55 138 -14 0 -37 -11 -50 -25z m85 -24 c16 -31 12 -59 -12 -75 -41 -29
-84 25 -58 73 14 27 56 28 70 2z"/>
<path d="M15225 2318 c-28 -16 -35 -28 -35 -68 0 -53 23 -80 69 -80 21 0 44 6
50 14 16 19 -3 30 -29 16 -24 -13 -60 2 -60 25 0 11 13 15 55 15 50 0 55 2 55
23 0 28 -9 41 -37 56 -27 14 -42 14 -68 -1z m63 -30 c21 -21 13 -28 -28 -28
-22 0 -40 4 -40 8 0 14 23 32 40 32 9 0 21 -5 28 -12z"/>
<path d="M16670 2275 c0 -103 14 -125 83 -125 65 0 80 21 85 125 4 81 4 85
-17 85 -20 0 -21 -5 -21 -78 0 -86 -8 -102 -52 -102 -37 0 -48 24 -48 109 0
56 -3 71 -15 71 -12 0 -15 -16 -15 -85z"/>
<path d="M16980 2345 c0 -10 10 -15 30 -15 l30 0 0 -90 c0 -83 1 -90 20 -90
19 0 20 7 20 90 l0 90 35 0 c24 0 35 5 35 15 0 12 -16 15 -85 15 -69 0 -85 -3
-85 -15z"/>
<path d="M17150 2296 c0 -9 11 -45 25 -82 14 -36 25 -68 25 -70 0 -3 -11 -9
-25 -14 -14 -5 -25 -14 -25 -20 0 -15 46 -12 59 4 14 17 73 188 66 194 -12 13
-33 -11 -45 -52 -7 -25 -15 -46 -19 -46 -3 0 -13 21 -21 47 -15 46 -40 70 -40
39z"/>
<path d="M17300 2205 c0 -87 3 -105 15 -105 10 0 15 10 15 28 0 26 2 28 35 24
51 -6 75 19 75 75 0 65 -41 99 -90 73 -13 -7 -21 -7 -25 0 -18 28 -25 0 -25
-95z m98 63 c25 -25 5 -98 -28 -98 -18 0 -40 32 -40 59 0 30 16 51 40 51 9 0
21 -5 28 -12z"/>
<path d="M17505 2298 c-28 -16 -35 -28 -35 -68 0 -53 23 -80 69 -80 21 0 44 6
50 14 16 19 -3 30 -29 16 -24 -13 -60 2 -60 25 0 11 13 15 55 15 50 0 55 2 55
23 0 28 -9 41 -37 56 -27 14 -42 14 -68 -1z m63 -30 c21 -21 13 -28 -28 -28
-22 0 -40 4 -40 8 0 14 23 32 40 32 9 0 21 -5 28 -12z"/>
<path d="M16870 2225 c0 -11 12 -15 45 -15 33 0 45 4 45 15 0 11 -12 15 -45
15 -33 0 -45 -4 -45 -15z"/>
<path d="M906 1291 c-13 -14 -14 -21 -5 -26 7 -5 16 -1 21 9 11 19 41 21 57 3
12 -15 -3 -37 -26 -37 -23 0 -14 -28 10 -32 16 -2 22 -10 22 -28 0 -32 -42
-41 -62 -14 -9 13 -16 15 -24 7 -18 -18 19 -44 59 -41 27 2 40 10 51 30 14 24
14 28 -2 46 -12 13 -15 22 -8 27 15 8 14 48 -1 63 -19 19 -73 14 -92 -7z"/>
<path d="M1068 1293 c-35 -18 -36 -33 -3 -33 24 0 25 -2 25 -65 0 -37 4 -65
10 -65 6 0 10 37 10 90 0 50 -3 90 -7 89 -5 -1 -20 -8 -35 -16z"/>
<path d="M1360 1295 c-19 -22 -2 -40 20 -20 24 22 55 16 55 -10 0 -13 -8 -21
-22 -23 -13 -2 -23 -10 -23 -17 0 -7 10 -15 23 -17 16 -2 22 -10 22 -28 0 -31
-29 -39 -56 -14 -22 20 -38 11 -23 -14 13 -21 65 -27 94 -12 22 12 28 58 9 77
-8 8 -8 17 0 32 19 35 -2 61 -48 61 -22 0 -44 -6 -51 -15z"/>
<path d="M1527 1297 c-20 -14 -32 -74 -23 -111 9 -37 33 -56 71 -56 44 0 65
30 65 90 0 60 -21 90 -64 90 -18 0 -40 -6 -49 -13z m72 -21 c7 -8 11 -30 9
-48 l-3 -33 -27 40 c-16 22 -28 43 -28 47 0 14 37 9 49 -6z m-35 -66 c14 -22
26 -44 26 -50 0 -18 -39 -11 -50 9 -9 18 -14 81 -6 81 2 0 15 -18 30 -40z"/>
<path d="M5840 1295 c-10 -12 -10 -19 -2 -27 8 -8 13 -7 18 5 7 20 37 22 52 5
15 -19 -2 -51 -47 -90 -57 -49 -53 -58 24 -58 37 0 65 4 65 10 0 6 -21 10 -47
10 l-47 0 42 43 c43 44 54 81 30 105 -17 17 -73 15 -88 -3z"/>
<path d="M5992 1291 c-33 -17 -34 -31 0 -31 16 0 18 -9 18 -65 0 -51 3 -65 15
-65 12 0 15 17 15 90 0 50 -3 90 -7 89 -5 -1 -23 -9 -41 -18z"/>
<path d="M6316 1294 c-22 -22 -9 -40 14 -19 24 22 54 16 58 -12 2 -15 -12 -36
-47 -69 -28 -27 -51 -52 -51 -56 0 -4 29 -8 65 -8 37 0 65 4 65 10 0 6 -18 10
-40 10 -47 0 -49 5 -15 32 25 19 55 67 55 87 0 36 -75 55 -104 25z"/>
<path d="M6464 1285 c-9 -14 -17 -43 -17 -65 0 -56 25 -90 67 -90 47 0 70 29
70 90 0 61 -23 90 -70 90 -25 0 -38 -7 -50 -25z m80 -11 c9 -8 16 -32 16 -52
0 -20 -4 -32 -8 -26 -32 37 -60 83 -55 88 11 11 31 7 47 -10z m-13 -97 c8 -13
6 -19 -7 -24 -24 -9 -54 31 -54 71 l1 31 25 -30 c14 -16 29 -38 35 -48z"/>
<path d="M6832 1291 c-33 -17 -34 -31 0 -31 16 0 18 -9 18 -65 0 -51 3 -65 15
-65 12 0 15 17 15 90 0 50 -3 90 -7 89 -5 -1 -23 -9 -41 -18z"/>
<path d="M6935 1294 c-10 -11 -15 -29 -13 -53 2 -28 9 -39 31 -49 28 -14 34
-26 17 -37 -15 -9 -12 -25 4 -25 20 0 66 83 66 118 0 53 -67 83 -105 46z m70
-20 c19 -20 16 -43 -7 -58 -21 -13 -51 2 -56 26 -3 16 23 48 38 48 5 0 16 -7
25 -16z"/>
<path d="M10308 1293 c-35 -18 -36 -33 -3 -33 24 0 25 -2 25 -65 0 -37 4 -65
10 -65 6 0 10 37 10 90 0 50 -3 90 -7 89 -5 -1 -20 -8 -35 -16z"/>
<path d="M10406 1294 c-22 -22 -9 -40 14 -19 24 22 54 16 58 -12 2 -15 -12
-36 -47 -69 -28 -27 -51 -52 -51 -56 0 -4 29 -8 65 -8 37 0 65 4 65 10 0 6
-18 10 -40 10 -47 0 -49 5 -15 32 25 19 55 67 55 87 0 36 -75 55 -104 25z"/>
<path d="M10812 1291 c-33 -17 -34 -31 0 -31 16 0 18 -9 18 -65 0 -51 3 -65
15 -65 12 0 15 17 15 90 0 50 -3 90 -7 89 -5 -1 -23 -9 -41 -18z"/>
<path d="M10918 1293 c-35 -18 -36 -33 -3 -33 24 0 25 -2 25 -65 0 -37 4 -65
10 -65 6 0 10 37 10 90 0 50 -3 90 -7 89 -5 -1 -20 -8 -35 -16z"/>
<path d="M12780 1300 c0 -5 20 -10 45 -10 25 0 45 -5 45 -10 0 -6 -16 -42 -35
-80 -31 -61 -33 -70 -17 -70 13 0 28 23 55 83 20 45 37 85 37 90 0 4 -29 7
-65 7 -37 0 -65 -4 -65 -10z"/>
<path d="M13311 1284 c-26 -32 -28 -100 -5 -132 23 -34 83 -27 104 11 13 24
13 30 -1 55 -12 22 -22 27 -52 27 -39 0 -48 14 -22 35 9 7 26 9 47 5 29 -7 31
-6 19 9 -21 25 -66 20 -90 -10z m67 -66 c17 -17 15 -43 -4 -59 -31 -26 -70 25
-44 56 15 18 32 19 48 3z"/>
<path d="M16264 1285 c-9 -14 -17 -43 -17 -65 0 -56 25 -90 67 -90 47 0 70 29
70 90 0 61 -23 90 -70 90 -25 0 -38 -7 -50 -25z m80 -11 c9 -8 16 -32 16 -52
0 -20 -4 -32 -8 -26 -32 37 -60 83 -55 88 11 11 31 7 47 -10z m-13 -97 c8 -13
6 -19 -7 -24 -24 -9 -54 31 -54 71 l1 31 25 -30 c14 -16 29 -38 35 -48z"/>
<path d="M760 1055 c0 -3 0 -137 0 -297 l-1 -293 7906 -3 7905 -2 0 300 0 300
-7905 0 c-4348 0 -7905 -2 -7905 -5z m480 -295 l0 -280 -230 0 -230 0 0 60 0
60 30 0 c17 0 30 5 30 10 0 6 -7 10 -15 10 -12 0 -15 17 -15 90 0 73 3 90 15
90 8 0 15 5 15 10 0 6 -13 10 -30 10 l-30 0 0 110 0 110 230 0 230 0 0 -280z
m510 245 c0 -44 18 -46 22 -2 l3 32 230 0 230 0 3 -32 c4 -44 22 -42 22 2 l0
35 230 0 230 0 0 -36 c0 -45 24 -42 28 4 l3 32 240 0 239 0 0 -35 c0 -44 18
-46 22 -2 l3 32 230 0 230 0 3 -32 c4 -44 22 -42 22 2 l0 35 230 0 230 0 0
-35 c0 -44 18 -46 22 -2 l3 32 243 3 242 2 0 -35 c0 -44 18 -46 22 -2 l3 32
230 0 230 0 3 -32 c4 -44 22 -42 22 2 l0 35 230 0 230 0 0 -35 c0 -44 18 -46
22 -2 l3 32 243 3 242 2 0 -280 0 -280 -242 2 -243 3 -3 33 c-4 43 -22 41 -22
-3 l0 -35 -230 0 -230 0 0 35 c0 44 -18 46 -22 3 l-3 -33 -230 0 -230 0 -3 33
c-4 43 -22 41 -22 -3 l0 -35 -242 2 -243 3 -3 33 c-4 43 -22 41 -22 -3 l0 -35
-230 0 -230 0 0 35 c0 44 -18 46 -22 3 l-3 -33 -230 0 -230 0 -3 33 c-4 43
-22 41 -22 -3 l0 -35 -239 0 -240 0 -3 32 c-4 46 -28 49 -28 4 l0 -36 -230 0
-230 0 0 35 c0 44 -18 46 -22 3 l-3 -33 -230 0 -230 0 -3 33 c-4 43 -22 41
-22 -3 l0 -35 -240 0 -240 0 0 280 0 280 240 0 240 0 0 -35z m4925 -245 l0
-275 -230 0 -230 0 -3 265 c-1 146 0 270 3 278 3 10 54 12 232 10 l228 -3 0
-275z m485 245 c0 -44 18 -46 22 -2 l3 32 243 3 242 2 0 -35 c0 -44 18 -46 22
-2 l3 32 230 0 230 0 3 -32 c4 -44 22 -42 22 2 l0 35 239 0 240 0 3 -32 c2
-18 8 -33 13 -33 6 0 11 15 13 33 l3 32 230 0 229 0 0 -35 c0 -44 18 -46 22
-2 l3 32 230 0 230 0 3 -32 c4 -44 22 -42 22 2 l0 35 239 0 240 0 3 -32 c2
-18 8 -33 13 -33 6 0 11 15 13 33 l3 32 230 0 229 0 0 -280 0 -280 -230 0
-230 0 0 36 c0 45 -24 42 -28 -4 l-3 -32 -240 0 -239 0 0 35 c0 44 -18 46 -22
3 l-3 -33 -230 0 -230 0 -3 33 c-4 43 -22 41 -22 -3 l0 -35 -230 0 -230 0 0
36 c0 45 -24 42 -28 -4 l-3 -32 -240 0 -239 0 0 35 c0 44 -18 46 -22 3 l-3
-33 -230 0 -230 0 -3 33 c-4 43 -22 41 -22 -3 l0 -35 -242 2 -243 3 -3 33 c-4
43 -22 41 -22 -3 l0 -35 -230 0 -230 0 0 280 0 280 230 0 230 0 0 -35z m3958
-2 c4 -44 22 -42 22 2 l0 35 239 0 240 0 3 -32 c2 -18 8 -33 13 -33 6 0 11 15
13 33 l3 32 230 0 229 0 0 -35 c0 -19 5 -35 10 -35 6 0 10 16 10 35 l0 35 233
-2 232 -3 3 -32 c4 -44 22 -42 22 2 l0 35 240 0 240 0 0 -280 0 -280 -240 0
-240 0 0 35 c0 44 -18 46 -22 3 l-3 -33 -230 0 -230 0 -3 33 c-4 43 -22 41
-22 -3 l0 -35 -229 0 -230 0 -3 33 c-2 17 -7 32 -13 32 -5 0 -11 -15 -13 -32
l-3 -33 -240 0 -239 0 0 35 c0 44 -18 46 -22 3 l-3 -33 -230 0 -230 0 -3 265
c-1 146 0 270 3 278 3 10 54 12 232 10 l228 -3 3 -32z m2472 2 c0 -19 5 -35
10 -35 6 0 10 16 10 35 l0 35 233 -2 232 -3 3 -32 c4 -44 22 -42 22 2 l0 35
239 0 240 0 3 -32 c2 -18 8 -33 13 -33 6 0 11 15 13 33 l3 32 230 0 229 0 0
-35 c0 -19 5 -35 10 -35 6 0 10 16 10 35 l0 35 233 -2 232 -3 3 -32 c4 -44 22
-42 22 2 l0 35 239 0 240 0 3 -32 c2 -18 8 -33 13 -33 6 0 11 15 13 33 l3 32
230 0 229 0 0 -280 0 -280 -229 0 -230 0 -3 33 c-4 42 -22 42 -26 0 l-3 -33
-240 0 -239 0 0 35 c0 44 -18 46 -22 3 l-3 -33 -230 0 -230 0 -3 33 c-4 43
-22 41 -22 -3 l0 -35 -229 0 -230 0 -3 33 c-2 17 -7 32 -13 32 -5 0 -11 -15
-13 -32 l-3 -33 -240 0 -239 0 0 35 c0 44 -18 46 -22 3 l-3 -33 -230 0 -230 0
-3 33 c-4 43 -22 41 -22 -3 l0 -35 -230 0 -230 0 0 280 0 280 230 0 230 0 0
-35z"/>
<path d="M880 805 c-10 -12 -10 -19 -2 -27 8 -8 13 -7 18 5 7 20 37 22 52 5
15 -19 -2 -51 -47 -90 -57 -49 -53 -58 24 -58 37 0 65 4 65 10 0 6 -21 10 -47
10 l-47 0 42 43 c43 44 54 81 30 105 -17 17 -73 15 -88 -3z"/>
<path d="M1037 807 c-20 -14 -32 -74 -23 -111 9 -37 33 -56 71 -56 44 0 65 30
65 90 0 60 -21 90 -64 90 -18 0 -40 -6 -49 -13z m72 -21 c7 -8 11 -30 9 -48
l-3 -33 -27 40 c-16 22 -28 43 -28 47 0 14 37 9 49 -6z m-35 -66 c14 -22 26
-44 26 -50 0 -18 -39 -11 -50 9 -9 18 -14 81 -6 81 2 0 15 -18 30 -40z"/>
<path d="M1170 811 c0 -5 9 -11 20 -14 18 -5 20 -14 20 -91 0 -79 -2 -86 -20
-86 -11 0 -20 -4 -20 -10 0 -5 14 -10 30 -10 l30 0 0 110 0 110 -30 0 c-16 0
-30 -4 -30 -9z"/>
<path d="M3190 815 c0 -8 7 -15 15 -15 8 0 15 7 15 15 0 8 -7 15 -15 15 -8 0
-15 -7 -15 -15z"/>
<path d="M3700 710 l0 -110 30 0 c17 0 30 5 30 10 0 6 -9 10 -20 10 -18 0 -20
7 -20 86 0 77 2 86 20 91 30 8 24 23 -10 23 l-30 0 0 -110z"/>
<path d="M3802 801 c-33 -17 -34 -31 0 -31 16 0 18 -9 18 -65 0 -51 3 -65 15
-65 12 0 15 17 15 90 0 50 -3 90 -7 89 -5 -1 -23 -9 -41 -18z"/>
<path d="M3904 795 c-9 -14 -17 -43 -17 -65 0 -56 25 -90 67 -90 47 0 70 29
70 90 0 61 -23 90 -70 90 -25 0 -38 -7 -50 -25z m80 -11 c9 -8 16 -32 16 -52
0 -20 -4 -32 -8 -26 -32 37 -60 83 -55 88 11 11 31 7 47 -10z m-13 -97 c8 -13
6 -19 -7 -24 -24 -9 -54 31 -54 71 l1 31 25 -30 c14 -16 29 -38 35 -48z"/>
<path d="M4138 803 c-35 -18 -36 -33 -3 -33 24 0 25 -2 25 -65 0 -37 4 -65 10
-65 6 0 10 37 10 90 0 50 -3 90 -7 89 -5 -1 -20 -8 -35 -16z"/>
<path d="M4210 811 c0 -5 9 -11 20 -14 18 -5 20 -14 20 -91 0 -79 -2 -86 -20
-86 -11 0 -20 -4 -20 -10 0 -5 14 -10 30 -10 l30 0 0 110 0 110 -30 0 c-16 0
-30 -4 -30 -9z"/>
<path d="M3295 770 c-11 -4 -26 -5 -32 -3 -10 4 -13 -12 -13 -61 0 -51 3 -66
14 -66 11 0 16 15 18 53 3 45 6 52 26 55 21 3 22 0 22 -52 0 -42 4 -56 14 -56
11 0 16 15 18 52 2 42 7 54 22 56 25 5 36 -14 36 -65 0 -24 5 -43 10 -43 6 0
10 27 10 60 0 67 -18 88 -62 71 -13 -5 -32 -5 -43 -1 -11 4 -29 4 -40 0z"/>
<path d="M3521 771 c-8 -5 -20 -7 -28 -4 -10 4 -13 -10 -13 -61 0 -37 4 -66
10 -66 6 0 10 19 10 43 0 51 11 70 36 65 15 -2 20 -14 22 -56 3 -60 22 -72 22
-14 0 46 20 78 44 69 12 -5 16 -19 16 -57 0 -38 4 -50 15 -50 11 0 15 12 15
50 0 57 -28 97 -58 84 -21 -9 -42 -9 -62 -1 -8 4 -21 3 -29 -2z"/>
<path d="M4061 766 c-9 -10 -9 -16 -1 -21 17 -10 37 12 24 25 -8 8 -15 6 -23
-4z"/>
<path d="M3184 754 c3 -9 6 -38 6 -65 0 -37 4 -49 15 -49 12 0 15 14 15 65 0
59 -2 65 -21 65 -15 0 -19 -4 -15 -16z"/>
<path d="M4057 664 c-9 -10 2 -24 19 -24 8 0 14 7 14 15 0 15 -21 21 -33 9z"/>
<path d="M6270 710 l0 -110 30 0 c17 0 30 5 30 10 0 6 -9 10 -20 10 -18 0 -20
7 -20 86 0 77 2 86 20 91 30 8 24 23 -10 23 l-30 0 0 -110z"/>
<path d="M6372 801 c-33 -17 -34 -31 0 -31 16 0 18 -9 18 -65 0 -51 3 -65 15
-65 12 0 15 17 15 90 0 50 -3 90 -7 89 -5 -1 -23 -9 -41 -18z"/>
<path d="M6478 803 c-35 -18 -36 -33 -3 -33 24 0 25 -2 25 -65 0 -37 4 -65 10
-65 6 0 10 37 10 90 0 50 -3 90 -7 89 -5 -1 -20 -8 -35 -16z"/>
<path d="M6560 810 c0 -5 7 -10 15 -10 12 0 15 -17 15 -90 0 -73 -3 -90 -15
-90 -8 0 -15 -4 -15 -10 0 -5 11 -10 25 -10 l25 0 0 110 0 110 -25 0 c-14 0
-25 -4 -25 -10z"/>
<path d="M8047 824 c-9 -10 2 -24 19 -24 8 0 14 7 14 15 0 15 -21 21 -33 9z"/>
<path d="M8560 710 l0 -110 30 0 c17 0 30 5 30 10 0 6 -9 10 -20 10 -18 0 -20
7 -20 86 0 77 2 86 20 91 30 8 24 23 -10 23 l-30 0 0 -110z"/>
<path d="M8662 801 c-33 -17 -34 -31 0 -31 16 0 18 -9 18 -65 0 -51 3 -65 15
-65 12 0 15 17 15 90 0 50 -3 90 -7 89 -5 -1 -23 -9 -41 -18z"/>
<path d="M8765 804 c-10 -11 -15 -29 -13 -53 2 -28 9 -39 31 -49 28 -14 34
-26 17 -37 -15 -9 -12 -25 4 -25 20 0 66 83 66 118 0 53 -67 83 -105 46z m70
-20 c19 -20 16 -43 -7 -58 -21 -13 -51 2 -56 26 -3 16 23 48 38 48 5 0 16 -7
25 -16z"/>
<path d="M8982 801 c-33 -17 -34 -31 0 -31 16 0 18 -9 18 -65 0 -51 3 -65 15
-65 12 0 15 17 15 90 0 50 -3 90 -7 89 -5 -1 -23 -9 -41 -18z"/>
<path d="M9080 805 c-10 -12 -10 -19 -2 -27 8 -8 13 -7 18 5 7 20 37 22 52 5
15 -19 -2 -51 -47 -90 -57 -49 -53 -58 24 -58 37 0 65 4 65 10 0 6 -21 10 -47
10 l-47 0 42 43 c43 44 54 81 30 105 -17 17 -73 15 -88 -3z"/>
<path d="M9200 811 c0 -5 9 -11 20 -14 18 -5 20 -14 20 -91 0 -79 -2 -86 -20
-86 -11 0 -20 -4 -20 -10 0 -5 14 -10 30 -10 l30 0 0 110 0 110 -30 0 c-16 0
-30 -4 -30 -9z"/>
<path d="M8155 770 c-11 -4 -26 -5 -32 -3 -10 4 -13 -12 -13 -61 0 -51 3 -66
14 -66 11 0 16 15 18 53 3 45 6 52 26 55 21 3 22 0 22 -52 0 -42 4 -56 14 -56
11 0 16 15 18 52 2 42 7 54 22 56 25 5 36 -14 36 -65 0 -24 5 -43 10 -43 6 0
10 27 10 60 0 67 -18 88 -62 71 -13 -5 -32 -5 -43 -1 -11 4 -29 4 -40 0z"/>
<path d="M8381 771 c-8 -5 -20 -7 -28 -4 -10 4 -13 -10 -13 -61 0 -37 4 -66
10 -66 6 0 10 19 10 43 0 51 11 70 36 65 15 -2 20 -14 22 -56 3 -60 22 -72 22
-14 0 46 20 78 44 69 12 -5 16 -19 16 -57 0 -38 4 -50 15 -50 11 0 15 12 15
50 0 57 -28 97 -58 84 -21 -9 -42 -9 -62 -1 -8 4 -21 3 -29 -2z"/>
<path d="M8906 773 c-12 -12 -6 -33 9 -33 8 0 15 6 15 14 0 17 -14 28 -24 19z"/>
<path d="M8030 760 c0 -5 5 -10 10 -10 6 0 10 -25 10 -55 0 -30 5 -55 10 -55
6 0 10 28 10 65 0 58 -2 65 -20 65 -11 0 -20 -4 -20 -10z"/>
<path d="M8900 655 c0 -10 7 -15 18 -13 21 4 19 22 -2 26 -10 2 -16 -3 -16
-13z"/>
<path d="M11950 790 c0 -28 -2 -30 -20 -20 -40 22 -86 -29 -73 -81 10 -41 23
-49 74 -47 l49 2 0 88 c0 72 -3 88 -15 88 -10 0 -15 -10 -15 -30z m-2 -76 c6
-56 -50 -73 -64 -19 -8 31 12 57 40 53 15 -2 22 -11 24 -34z"/>
<path d="M11770 703 c0 -48 3 -63 14 -63 11 0 16 14 18 48 2 38 7 49 26 57 34
15 26 24 -18 22 l-40 -1 0 -63z"/>
<path d="M15080 790 c0 -28 -2 -30 -20 -20 -40 22 -86 -29 -73 -81 10 -41 23
-49 74 -47 l49 2 0 88 c0 72 -3 88 -15 88 -10 0 -15 -10 -15 -30z m-2 -76 c6
-56 -50 -73 -64 -19 -8 31 12 57 40 53 15 -2 22 -11 24 -34z"/>
<path d="M14437 759 c-50 -39 -27 -119 34 -119 40 0 63 23 63 64 0 61 -52 91
-97 55z m63 -23 c28 -34 -11 -94 -44 -67 -16 13 -22 62 -9 74 11 12 40 8 53
-7z"/>
<path d="M14611 771 c-8 -5 -20 -7 -28 -4 -10 4 -13 -13 -13 -81 0 -51 4 -86
10 -86 6 0 10 10 10 23 0 21 4 23 30 19 77 -11 100 110 25 132 -11 3 -26 2
-34 -3z m47 -57 c6 -56 -50 -73 -64 -19 -8 31 12 57 40 53 15 -2 22 -11 24
-34z"/>
<path d="M14745 768 c-11 -6 -23 -16 -27 -22 -14 -21 -8 -73 10 -89 22 -20 65
-22 81 -4 15 19 3 28 -19 15 -27 -17 -52 7 -48 46 3 29 5 31 41 29 40 -3 49
10 18 27 -24 12 -31 12 -56 -2z"/>
<path d="M14867 759 c-50 -39 -27 -119 34 -119 40 0 63 23 63 64 0 61 -52 91
-97 55z m63 -23 c28 -34 -11 -94 -44 -67 -16 13 -22 62 -9 74 11 12 40 8 53
-7z"/>
<path d="M15172 770 c-42 -17 -48 -97 -9 -122 21 -13 64 -9 78 8 12 15 10 16
-19 9 -21 -4 -38 -2 -47 5 -26 22 -16 30 35 30 41 0 50 3 50 18 0 23 -10 37
-37 51 -25 13 -21 13 -51 1z m56 -37 c2 -9 -8 -13 -32 -13 -28 0 -34 3 -29 16
7 18 54 16 61 -3z"/>
<path d="M16730 725 c0 -62 -3 -77 -17 -82 -11 -4 -22 1 -31 15 -18 27 -32 28
-32 4 0 -27 20 -42 57 -42 43 0 53 21 53 109 0 56 -3 71 -15 71 -12 0 -15 -15
-15 -75z"/>
<path d="M16880 790 c0 -5 14 -10 30 -10 l30 0 0 -80 c0 -64 3 -80 15 -80 12
0 15 16 15 80 l0 80 30 0 c17 0 30 5 30 10 0 6 -32 10 -75 10 -43 0 -75 -4
-75 -10z"/>
<path d="M17201 751 c-8 -5 -20 -7 -28 -4 -10 4 -13 -13 -13 -81 0 -51 4 -86
10 -86 6 0 10 10 10 23 0 21 4 23 30 19 77 -11 100 110 25 132 -11 3 -26 2
-34 -3z m47 -57 c6 -56 -50 -73 -64 -19 -8 31 12 57 40 53 15 -2 22 -11 24
-34z"/>
<path d="M17327 739 c-33 -25 -37 -77 -9 -102 24 -22 76 -22 93 0 13 15 11 16
-20 10 -33 -7 -61 5 -61 24 0 5 23 9 51 9 48 0 50 1 44 23 -16 50 -60 67 -98
36z m67 -24 c4 -12 -3 -15 -29 -15 -33 0 -43 8 -28 23 12 13 51 7 57 -8z"/>
<path d="M17030 740 c0 -5 9 -34 21 -64 21 -57 19 -76 -7 -76 -8 0 -14 -5 -14
-11 0 -6 12 -9 27 -7 23 3 29 12 54 86 21 62 24 82 14 82 -7 0 -20 -19 -28
-42 -10 -28 -17 -38 -21 -28 -3 8 -10 27 -15 43 -10 26 -31 38 -31 17z"/>
<path d="M16790 690 c0 -5 18 -10 40 -10 22 0 40 5 40 10 0 6 -18 10 -40 10
-22 0 -40 -4 -40 -10z"/>
</g>
</svg>
